<mxfile host="65bd71144e">
    <diagram id="C5RBs43oDa-KdzZeNtuy" name="Page-1">
        <mxGraphModel dx="3771" dy="3157" grid="1" gridSize="10" guides="1" tooltips="1" connect="1" arrows="1" fold="1" page="1" pageScale="1" pageWidth="827" pageHeight="1169" math="0" shadow="0">
            <root>
                <mxCell id="WIyWlLk6GJQsqaUBKTNV-0"/>
                <mxCell id="WIyWlLk6GJQsqaUBKTNV-1" parent="WIyWlLk6GJQsqaUBKTNV-0"/>
                <mxCell id="2" value="数据读取" style="swimlane;fontStyle=0;childLayout=stackLayout;horizontal=1;startSize=30;horizontalStack=0;resizeParent=1;resizeParentMax=0;resizeLast=0;collapsible=1;marginBottom=0;whiteSpace=wrap;html=1;swimlaneFillColor=none;fillColor=none;fontColor=#ffffff;strokeColor=#FFFFFF;" parent="WIyWlLk6GJQsqaUBKTNV-1" vertex="1">
                    <mxGeometry x="-453" y="130" width="330" height="150" as="geometry"/>
                </mxCell>
                <mxCell id="3" value="1. Load DBP Pump-Probe Data(orgi)" style="text;strokeColor=default;fillColor=default;align=left;verticalAlign=middle;spacingLeft=4;spacingRight=4;overflow=hidden;points=[[0,0.5],[1,0.5]];portConstraint=eastwest;rotatable=0;whiteSpace=wrap;html=1;" parent="2" vertex="1">
                    <mxGeometry y="30" width="330" height="30" as="geometry"/>
                </mxCell>
                <mxCell id="4" value="2. Load Absorption Spectrum(ab, wlax)" style="text;strokeColor=default;fillColor=none;align=left;verticalAlign=middle;spacingLeft=4;spacingRight=4;overflow=hidden;points=[[0,0.5],[1,0.5]];portConstraint=eastwest;rotatable=0;whiteSpace=wrap;html=1;" parent="2" vertex="1">
                    <mxGeometry y="60" width="330" height="30" as="geometry"/>
                </mxCell>
                <mxCell id="5" value="3. Load Fitted DBP Parameters(ki_lsq_DBP, ki_lsq_dDBP)" style="text;strokeColor=default;fillColor=none;align=left;verticalAlign=middle;spacingLeft=4;spacingRight=4;overflow=hidden;points=[[0,0.5],[1,0.5]];portConstraint=eastwest;rotatable=0;whiteSpace=wrap;html=1;" parent="2" vertex="1">
                    <mxGeometry y="90" width="330" height="30" as="geometry"/>
                </mxCell>
                <mxCell id="12" value="4. Load DBP Reflection Spectrum(dat_ref2, dat_bkgnd0)" style="text;strokeColor=default;fillColor=none;align=left;verticalAlign=middle;spacingLeft=4;spacingRight=4;overflow=hidden;points=[[0,0.5],[1,0.5]];portConstraint=eastwest;rotatable=0;whiteSpace=wrap;html=1;" parent="2" vertex="1">
                    <mxGeometry y="120" width="330" height="30" as="geometry"/>
                </mxCell>
                <mxCell id="46" value="" style="ellipse;html=1;shape=startState;fillColor=#000000;strokeColor=#ff0000;" parent="WIyWlLk6GJQsqaUBKTNV-1" vertex="1">
                    <mxGeometry x="-15" y="40" width="30" height="30" as="geometry"/>
                </mxCell>
                <mxCell id="47" value="" style="edgeStyle=orthogonalEdgeStyle;html=1;verticalAlign=bottom;endArrow=open;endSize=8;strokeColor=#ff0000;entryX=0.5;entryY=0;entryDx=0;entryDy=0;exitX=0.5;exitY=1;exitDx=0;exitDy=0;" parent="WIyWlLk6GJQsqaUBKTNV-1" source="46" target="50" edge="1">
                    <mxGeometry relative="1" as="geometry">
                        <mxPoint x="55" y="130" as="targetPoint"/>
                        <mxPoint x="220" y="90" as="sourcePoint"/>
                    </mxGeometry>
                </mxCell>
                <mxCell id="50" value="数据读取" style="rounded=1;whiteSpace=wrap;html=1;arcSize=40;fontColor=#000000;fillColor=#ffffc0;strokeColor=#ff0000;" parent="WIyWlLk6GJQsqaUBKTNV-1" vertex="1">
                    <mxGeometry x="-60" y="110" width="120" height="40" as="geometry"/>
                </mxCell>
                <mxCell id="51" value="" style="edgeStyle=orthogonalEdgeStyle;html=1;verticalAlign=bottom;endArrow=open;endSize=8;strokeColor=#ff0000;entryX=0.5;entryY=0;entryDx=0;entryDy=0;" parent="WIyWlLk6GJQsqaUBKTNV-1" source="50" target="52" edge="1">
                    <mxGeometry relative="1" as="geometry">
                        <mxPoint y="260" as="targetPoint"/>
                    </mxGeometry>
                </mxCell>
                <mxCell id="52" value="数据处理" style="swimlane;fontStyle=1;align=center;verticalAlign=middle;childLayout=stackLayout;horizontal=1;startSize=30;horizontalStack=0;resizeParent=0;resizeLast=1;container=0;fontColor=#000000;collapsible=0;rounded=1;arcSize=30;strokeColor=#ff0000;fillColor=#ffffc0;swimlaneFillColor=#ffffc0;dropTarget=0;" parent="WIyWlLk6GJQsqaUBKTNV-1" vertex="1">
                    <mxGeometry x="-80" y="350" width="160" height="60" as="geometry"/>
                </mxCell>
                <mxCell id="53" value="平滑，插值" style="text;html=1;strokeColor=none;fillColor=none;align=center;verticalAlign=middle;spacingLeft=4;spacingRight=4;whiteSpace=wrap;overflow=hidden;rotatable=0;fontColor=#000000;" parent="52" vertex="1">
                    <mxGeometry y="30" width="160" height="30" as="geometry"/>
                </mxCell>
                <mxCell id="54" value="" style="edgeStyle=orthogonalEdgeStyle;html=1;verticalAlign=bottom;endArrow=open;endSize=8;strokeColor=#ff0000;entryX=0.497;entryY=0.15;entryDx=0;entryDy=0;entryPerimeter=0;" parent="WIyWlLk6GJQsqaUBKTNV-1" source="52" target="185" edge="1">
                    <mxGeometry relative="1" as="geometry">
                        <mxPoint y="610" as="targetPoint"/>
                    </mxGeometry>
                </mxCell>
                <mxCell id="56" value="" style="edgeStyle=orthogonalEdgeStyle;html=1;verticalAlign=bottom;endArrow=open;endSize=8;strokeColor=#ff0000;exitX=0.5;exitY=1;exitDx=0;exitDy=0;entryX=0.5;entryY=0;entryDx=0;entryDy=0;" parent="WIyWlLk6GJQsqaUBKTNV-1" source="125" target="127" edge="1">
                    <mxGeometry relative="1" as="geometry">
                        <mxPoint y="880" as="targetPoint"/>
                        <mxPoint y="650" as="sourcePoint"/>
                    </mxGeometry>
                </mxCell>
                <mxCell id="58" value="" style="edgeStyle=orthogonalEdgeStyle;html=1;verticalAlign=bottom;endArrow=open;endSize=8;strokeColor=#ff0000;entryX=0.5;entryY=-0.017;entryDx=0;entryDy=0;exitX=0.5;exitY=1;exitDx=0;exitDy=0;entryPerimeter=0;" parent="WIyWlLk6GJQsqaUBKTNV-1" source="127" target="189" edge="1">
                    <mxGeometry relative="1" as="geometry">
                        <mxPoint y="850" as="targetPoint"/>
                        <mxPoint y="1000" as="sourcePoint"/>
                    </mxGeometry>
                </mxCell>
                <mxCell id="75" value="可调整参数" style="swimlane;fontStyle=0;childLayout=stackLayout;horizontal=1;startSize=30;horizontalStack=0;resizeParent=1;resizeParentMax=0;resizeLast=0;collapsible=1;marginBottom=0;whiteSpace=wrap;html=1;strokeWidth=1;fillColor=#008a00;fontColor=#ffffff;strokeColor=#005700;" parent="WIyWlLk6GJQsqaUBKTNV-1" vertex="1">
                    <mxGeometry x="360" y="230" width="140" height="90" as="geometry"/>
                </mxCell>
                <mxCell id="76" value="1. 卷积区间（9x9）" style="text;strokeColor=#3A5431;fillColor=#6d8764;align=left;verticalAlign=middle;spacingLeft=4;spacingRight=4;overflow=hidden;points=[[0,0.5],[1,0.5]];portConstraint=eastwest;rotatable=0;whiteSpace=wrap;html=1;strokeWidth=1;fontColor=#ffffff;" parent="75" vertex="1">
                    <mxGeometry y="30" width="140" height="30" as="geometry"/>
                </mxCell>
                <mxCell id="77" value="2. 滤波器类型（same）" style="text;strokeColor=#3A5431;fillColor=#6d8764;align=left;verticalAlign=middle;spacingLeft=4;spacingRight=4;overflow=hidden;points=[[0,0.5],[1,0.5]];portConstraint=eastwest;rotatable=0;whiteSpace=wrap;html=1;strokeWidth=1;fontColor=#ffffff;" parent="75" vertex="1">
                    <mxGeometry y="60" width="140" height="30" as="geometry"/>
                </mxCell>
                <mxCell id="80" value="可调整参数" style="swimlane;fontStyle=0;childLayout=stackLayout;horizontal=1;startSize=30;horizontalStack=0;resizeParent=1;resizeParentMax=0;resizeLast=0;collapsible=1;marginBottom=0;whiteSpace=wrap;html=1;strokeWidth=1;fillColor=#008a00;fontColor=#ffffff;strokeColor=#005700;" parent="WIyWlLk6GJQsqaUBKTNV-1" vertex="1">
                    <mxGeometry x="360" y="335" width="180" height="90" as="geometry"/>
                </mxCell>
                <mxCell id="78" value="1. 波长范围（50-442）" style="text;strokeColor=#3A5431;fillColor=#6d8764;align=left;verticalAlign=middle;spacingLeft=4;spacingRight=4;overflow=hidden;points=[[0,0.5],[1,0.5]];portConstraint=eastwest;rotatable=0;whiteSpace=wrap;html=1;strokeWidth=1;fontColor=#ffffff;" parent="80" vertex="1">
                    <mxGeometry y="30" width="180" height="30" as="geometry"/>
                </mxCell>
                <mxCell id="81" value="2. 吸收系数的一个变量（c_ki）" style="text;strokeColor=#3A5431;fillColor=#6d8764;align=left;verticalAlign=middle;spacingLeft=4;spacingRight=4;overflow=hidden;points=[[0,0.5],[1,0.5]];portConstraint=eastwest;rotatable=0;whiteSpace=wrap;html=1;strokeWidth=1;fontColor=#ffffff;" parent="80" vertex="1">
                    <mxGeometry y="60" width="180" height="30" as="geometry"/>
                </mxCell>
                <mxCell id="87" value="可调整参数" style="swimlane;fontStyle=0;childLayout=stackLayout;horizontal=1;startSize=30;horizontalStack=0;resizeParent=1;resizeParentMax=0;resizeLast=0;collapsible=1;marginBottom=0;whiteSpace=wrap;html=1;strokeWidth=1;fillColor=#008a00;fontColor=#ffffff;strokeColor=#005700;" parent="WIyWlLk6GJQsqaUBKTNV-1" vertex="1">
                    <mxGeometry x="360" y="440" width="370" height="120" as="geometry">
                        <mxRectangle x="470" y="450" width="100" height="30" as="alternateBounds"/>
                    </mxGeometry>
                </mxCell>
                <mxCell id="90" value="1. 均匀插值精度（len=300）&lt;span style=&quot;white-space: pre;&quot;&gt;&#9;&lt;/span&gt;" style="text;strokeColor=#3A5431;fillColor=#6d8764;align=left;verticalAlign=middle;spacingLeft=4;spacingRight=4;overflow=hidden;points=[[0,0.5],[1,0.5]];portConstraint=eastwest;rotatable=0;whiteSpace=wrap;html=1;strokeWidth=1;fontColor=#ffffff;" parent="87" vertex="1">
                    <mxGeometry y="30" width="370" height="30" as="geometry"/>
                </mxCell>
                <mxCell id="91" value="2. t2_1表示从第几个时间点开始分析吸光度数据" style="text;strokeColor=#3A5431;fillColor=#6d8764;align=left;verticalAlign=middle;spacingLeft=4;spacingRight=4;overflow=hidden;points=[[0,0.5],[1,0.5]];portConstraint=eastwest;rotatable=0;whiteSpace=wrap;html=1;strokeWidth=1;fontColor=#ffffff;" parent="87" vertex="1">
                    <mxGeometry y="60" width="370" height="30" as="geometry"/>
                </mxCell>
                <mxCell id="92" value="3. t2表示是orgi的时间数组，对应不同时间延迟的Pump-Probe数据" style="text;strokeColor=#3A5431;fillColor=#6d8764;align=left;verticalAlign=middle;spacingLeft=4;spacingRight=4;overflow=hidden;points=[[0,0.5],[1,0.5]];portConstraint=eastwest;rotatable=0;whiteSpace=wrap;html=1;strokeWidth=1;fontColor=#ffffff;" parent="87" vertex="1">
                    <mxGeometry y="90" width="370" height="30" as="geometry"/>
                </mxCell>
                <mxCell id="118" value="&lt;p style=&quot;margin:0px;margin-top:6px;text-align:center;&quot;&gt;&lt;b&gt;图1-原始DBP数据等高线图&lt;/b&gt;&lt;/p&gt;&lt;hr&gt;&lt;p style=&quot;margin:0px;margin-left:8px;&quot;&gt;+ 输入数据: 平滑过的DBP Pump-Probe数据&lt;br&gt;+ x范围: 根据参数选定的波长范围&lt;/p&gt;&lt;p style=&quot;margin:0px;margin-left:8px;&quot;&gt;+ y范围切分: 根据选定的时间节点&lt;/p&gt;&lt;p style=&quot;margin:0px;margin-left:8px;&quot;&gt;+ z范围: 光强&lt;/p&gt;" style="align=left;overflow=fill;html=1;dropTarget=0;strokeColor=#001DBC;strokeWidth=1;fillColor=#0050ef;fontColor=#ffffff;" parent="WIyWlLk6GJQsqaUBKTNV-1" vertex="1">
                    <mxGeometry x="-413" y="550" width="250" height="100" as="geometry"/>
                </mxCell>
                <mxCell id="119" value="" style="shape=component;jettyWidth=8;jettyHeight=4;strokeColor=default;strokeWidth=1;" parent="118" vertex="1">
                    <mxGeometry x="1" width="20" height="20" relative="1" as="geometry">
                        <mxPoint x="-24" y="4" as="offset"/>
                    </mxGeometry>
                </mxCell>
                <mxCell id="120" value="可调整参数" style="swimlane;fontStyle=0;childLayout=stackLayout;horizontal=1;startSize=30;horizontalStack=0;resizeParent=1;resizeParentMax=0;resizeLast=0;collapsible=1;marginBottom=0;whiteSpace=wrap;html=1;strokeWidth=1;fillColor=#008a00;fontColor=#ffffff;strokeColor=#005700;" parent="WIyWlLk6GJQsqaUBKTNV-1" vertex="1">
                    <mxGeometry x="200" y="600" width="200" height="60" as="geometry"/>
                </mxCell>
                <mxCell id="121" value="1. 根据实验结果总结{-kk()*5.5+1.8}" style="text;strokeColor=#3A5431;fillColor=#6d8764;align=left;verticalAlign=middle;spacingLeft=4;spacingRight=4;overflow=hidden;points=[[0,0.5],[1,0.5]];portConstraint=eastwest;rotatable=0;whiteSpace=wrap;html=1;strokeWidth=1;fontColor=#ffffff;" parent="120" vertex="1">
                    <mxGeometry y="30" width="200" height="30" as="geometry"/>
                </mxCell>
                <mxCell id="124" value="KK Fitting" style="swimlane;fontStyle=1;align=center;verticalAlign=middle;childLayout=stackLayout;horizontal=1;startSize=30;horizontalStack=0;resizeParent=0;resizeLast=1;container=0;fontColor=#000000;collapsible=0;rounded=1;arcSize=30;strokeColor=#ff0000;fillColor=#ffffc0;swimlaneFillColor=#ffffc0;dropTarget=0;strokeWidth=1;" parent="WIyWlLk6GJQsqaUBKTNV-1" vertex="1">
                    <mxGeometry x="-85" y="570" width="170" height="60" as="geometry"/>
                </mxCell>
                <mxCell id="125" value="拟合实验DBP数据的折射率" style="text;html=1;strokeColor=none;fillColor=none;align=center;verticalAlign=middle;spacingLeft=4;spacingRight=4;whiteSpace=wrap;overflow=hidden;rotatable=0;fontColor=#000000;strokeWidth=1;" parent="124" vertex="1">
                    <mxGeometry y="30" width="170" height="30" as="geometry"/>
                </mxCell>
                <mxCell id="127" value="LSQ Fitting" style="swimlane;fontStyle=1;align=center;verticalAlign=middle;childLayout=stackLayout;horizontal=1;startSize=30;horizontalStack=0;resizeParent=0;resizeLast=1;container=0;fontColor=#000000;collapsible=0;rounded=1;arcSize=30;strokeColor=#ff0000;fillColor=#ffffc0;swimlaneFillColor=#ffffc0;dropTarget=0;strokeWidth=1;" parent="WIyWlLk6GJQsqaUBKTNV-1" vertex="1">
                    <mxGeometry x="-110" y="710" width="220" height="60" as="geometry"/>
                </mxCell>
                <mxCell id="128" value="拟合高斯拟合后的DBP参数的折射率" style="text;html=1;strokeColor=none;fillColor=none;align=center;verticalAlign=middle;spacingLeft=4;spacingRight=4;whiteSpace=wrap;overflow=hidden;rotatable=0;fontColor=#000000;strokeWidth=1;" parent="127" vertex="1">
                    <mxGeometry y="30" width="220" height="30" as="geometry"/>
                </mxCell>
                <mxCell id="129" value="拟合并插值，使波长均匀" style="text;html=1;strokeColor=none;fillColor=none;align=center;verticalAlign=middle;spacingLeft=4;spacingRight=4;whiteSpace=wrap;overflow=hidden;rotatable=0;fontColor=#000000;strokeWidth=1;" parent="127" vertex="1">
                    <mxGeometry y="60" width="220" as="geometry"/>
                </mxCell>
                <mxCell id="130" value="可调整参数" style="swimlane;fontStyle=0;childLayout=stackLayout;horizontal=1;startSize=30;horizontalStack=0;resizeParent=1;resizeParentMax=0;resizeLast=0;collapsible=1;marginBottom=0;whiteSpace=wrap;html=1;strokeWidth=1;fillColor=#008a00;fontColor=#ffffff;strokeColor=#005700;" parent="WIyWlLk6GJQsqaUBKTNV-1" vertex="1">
                    <mxGeometry x="200" y="740" width="200" height="60" as="geometry"/>
                </mxCell>
                <mxCell id="131" value="1. 根据实验结果总结{-kk()*5.5+1.8}" style="text;strokeColor=#3A5431;fillColor=#6d8764;align=left;verticalAlign=middle;spacingLeft=4;spacingRight=4;overflow=hidden;points=[[0,0.5],[1,0.5]];portConstraint=eastwest;rotatable=0;whiteSpace=wrap;html=1;strokeWidth=1;fontColor=#ffffff;" parent="130" vertex="1">
                    <mxGeometry y="30" width="200" height="30" as="geometry"/>
                </mxCell>
                <mxCell id="162" value="&lt;p style=&quot;margin:0px;margin-top:6px;text-align:center;&quot;&gt;&lt;b&gt;图2-DBP折射率随波长变化&lt;/b&gt;&lt;/p&gt;&lt;hr&gt;&lt;p style=&quot;margin:0px;margin-left:8px;&quot;&gt;+ 输入数据: 平滑过的DBP Pump-Probe数据&lt;br&gt;+ x范围: 均匀波长范围&lt;/p&gt;&lt;p style=&quot;margin:0px;margin-left:8px;&quot;&gt;+ y范围: 测量折射率和kk拟合折射率&lt;/p&gt;" style="align=left;overflow=fill;html=1;dropTarget=0;strokeColor=#001DBC;strokeWidth=1;fillColor=#0050ef;fontColor=#ffffff;" parent="WIyWlLk6GJQsqaUBKTNV-1" vertex="1">
                    <mxGeometry x="-1486.5" y="929" width="250" height="90" as="geometry"/>
                </mxCell>
                <mxCell id="163" value="" style="shape=component;jettyWidth=8;jettyHeight=4;strokeColor=default;strokeWidth=1;" parent="162" vertex="1">
                    <mxGeometry x="1" width="20" height="20" relative="1" as="geometry">
                        <mxPoint x="-24" y="4" as="offset"/>
                    </mxGeometry>
                </mxCell>
                <mxCell id="173" value="&lt;span style=&quot;font-family: &amp;quot;Helvetica Neue&amp;quot;, Helvetica, &amp;quot;Segoe UI&amp;quot;, Arial, freesans, sans-serif;&quot;&gt;&lt;font color=&quot;#ffffff&quot; style=&quot;font-size: 12px;&quot;&gt;原始DBP pump-probe实验数据的光谱变化。波长与时间的关系通过等高线表示，显示了在不同延迟时间下的瞬态吸收变化。&lt;/font&gt;&lt;/span&gt;" style="shape=document;whiteSpace=wrap;html=1;boundedLbl=1;labelBackgroundColor=none;strokeColor=#006EAF;strokeWidth=1;fontColor=#ffffff;align=left;fillColor=#1ba1e2;" parent="WIyWlLk6GJQsqaUBKTNV-1" vertex="1">
                    <mxGeometry x="-376.5" y="720" width="177" height="90" as="geometry"/>
                </mxCell>
                <mxCell id="175" value="" style="endArrow=none;dashed=1;html=1;dashPattern=1 3;strokeWidth=2;fontColor=#f2eded;exitX=0.5;exitY=0;exitDx=0;exitDy=0;entryX=0.5;entryY=1;entryDx=0;entryDy=0;" parent="WIyWlLk6GJQsqaUBKTNV-1" source="173" target="118" edge="1">
                    <mxGeometry width="50" height="50" relative="1" as="geometry">
                        <mxPoint x="-520" y="450" as="sourcePoint"/>
                        <mxPoint x="-470" y="400" as="targetPoint"/>
                    </mxGeometry>
                </mxCell>
                <mxCell id="181" value="" style="endArrow=none;dashed=1;html=1;dashPattern=1 3;strokeWidth=2;fontSize=12;fontColor=#FFFFFF;exitX=0;exitY=0.5;exitDx=0;exitDy=0;entryX=1;entryY=0;entryDx=0;entryDy=0;" parent="WIyWlLk6GJQsqaUBKTNV-1" source="50" target="2" edge="1">
                    <mxGeometry width="50" height="50" relative="1" as="geometry">
                        <mxPoint x="80" y="310" as="sourcePoint"/>
                        <mxPoint x="130" y="260" as="targetPoint"/>
                    </mxGeometry>
                </mxCell>
                <mxCell id="185" value="" style="shape=line;html=1;strokeWidth=6;strokeColor=#ff0000;labelBackgroundColor=none;fontSize=12;fontColor=#FFFFFF;fillColor=#fdffc2;" parent="WIyWlLk6GJQsqaUBKTNV-1" vertex="1">
                    <mxGeometry x="-100" y="480" width="200" height="10" as="geometry"/>
                </mxCell>
                <mxCell id="186" value="" style="edgeStyle=orthogonalEdgeStyle;html=1;verticalAlign=bottom;endArrow=open;endSize=8;strokeColor=#ff0000;strokeWidth=1;fontSize=12;fontColor=#FFFFFF;entryX=0.5;entryY=0;entryDx=0;entryDy=0;" parent="WIyWlLk6GJQsqaUBKTNV-1" source="185" target="124" edge="1">
                    <mxGeometry relative="1" as="geometry">
                        <mxPoint y="550" as="targetPoint"/>
                    </mxGeometry>
                </mxCell>
                <mxCell id="188" value="" style="edgeStyle=orthogonalEdgeStyle;html=1;verticalAlign=bottom;endArrow=open;endSize=8;strokeColor=#ff0000;strokeWidth=1;fontSize=12;fontColor=#FFFFFF;exitX=0.497;exitY=0.983;exitDx=0;exitDy=0;exitPerimeter=0;entryX=0.5;entryY=0;entryDx=0;entryDy=0;" parent="WIyWlLk6GJQsqaUBKTNV-1" source="185" target="118" edge="1">
                    <mxGeometry relative="1" as="geometry">
                        <mxPoint x="-80" y="550" as="targetPoint"/>
                        <mxPoint x="10" y="500" as="sourcePoint"/>
                    </mxGeometry>
                </mxCell>
                <mxCell id="189" value="" style="shape=line;html=1;strokeWidth=6;strokeColor=#ff0000;labelBackgroundColor=none;fontSize=12;fontColor=#FFFFFF;fillColor=#fdffc2;" parent="WIyWlLk6GJQsqaUBKTNV-1" vertex="1">
                    <mxGeometry x="-100" y="840" width="200" height="10" as="geometry"/>
                </mxCell>
                <mxCell id="195" value="" style="edgeStyle=orthogonalEdgeStyle;html=1;verticalAlign=bottom;endArrow=open;endSize=8;strokeColor=#ff0000;strokeWidth=1;fontSize=12;fontColor=#FFFFFF;exitX=0.498;exitY=0.983;exitDx=0;exitDy=0;exitPerimeter=0;entryX=0.5;entryY=0;entryDx=0;entryDy=0;" parent="WIyWlLk6GJQsqaUBKTNV-1" source="189" target="162" edge="1">
                    <mxGeometry relative="1" as="geometry">
                        <mxPoint x="-230" y="920" as="targetPoint"/>
                        <mxPoint x="10.000000000000227" y="860" as="sourcePoint"/>
                    </mxGeometry>
                </mxCell>
                <mxCell id="197" value="&lt;p style=&quot;margin:0px;margin-top:6px;text-align:center;&quot;&gt;&lt;b&gt;图3-DBP吸收系数随波长变化&lt;/b&gt;&lt;/p&gt;&lt;hr&gt;&lt;p style=&quot;margin:0px;margin-left:8px;&quot;&gt;+ 输入数据: 均匀的lsq拟合的DBP吸收系数&lt;br&gt;+ x范围: 均匀波长范围&lt;/p&gt;&lt;p style=&quot;margin:0px;margin-left:8px;&quot;&gt;+ y范围: 吸收系数&lt;/p&gt;" style="align=left;overflow=fill;html=1;dropTarget=0;strokeColor=#001DBC;strokeWidth=1;fillColor=#0050ef;fontColor=#ffffff;" parent="WIyWlLk6GJQsqaUBKTNV-1" vertex="1">
                    <mxGeometry x="-1190" y="929" width="250" height="90" as="geometry"/>
                </mxCell>
                <mxCell id="198" value="" style="shape=component;jettyWidth=8;jettyHeight=4;strokeColor=default;strokeWidth=1;" parent="197" vertex="1">
                    <mxGeometry x="1" width="20" height="20" relative="1" as="geometry">
                        <mxPoint x="-24" y="4" as="offset"/>
                    </mxGeometry>
                </mxCell>
                <mxCell id="199" value="&lt;p style=&quot;margin:0px;margin-top:6px;text-align:center;&quot;&gt;&lt;b&gt;图5-选取的时间点光谱图，中分时间点&lt;/b&gt;&lt;/p&gt;&lt;hr&gt;&lt;p style=&quot;margin:0px;margin-left:8px;&quot;&gt;+ 输入数据: 不同时间延迟的DBP Pump-Probe数据&lt;br&gt;+ x范围: 均匀波长范围&lt;/p&gt;&lt;p style=&quot;margin:0px;margin-left:8px;&quot;&gt;+ y范围: 吸收光谱数据&lt;/p&gt;" style="align=left;overflow=fill;html=1;dropTarget=0;strokeColor=#001DBC;strokeWidth=1;fillColor=#0050ef;fontColor=#ffffff;" parent="WIyWlLk6GJQsqaUBKTNV-1" vertex="1">
                    <mxGeometry x="-630" y="1150" width="280" height="90" as="geometry"/>
                </mxCell>
                <mxCell id="200" value="" style="shape=component;jettyWidth=8;jettyHeight=4;strokeColor=default;strokeWidth=1;" parent="199" vertex="1">
                    <mxGeometry x="1" width="20" height="20" relative="1" as="geometry">
                        <mxPoint x="-24" y="4" as="offset"/>
                    </mxGeometry>
                </mxCell>
                <mxCell id="201" value="&lt;p style=&quot;margin:0px;margin-top:6px;text-align:center;&quot;&gt;&lt;b&gt;图4-同时展示拟合折射率与吸收系数&lt;/b&gt;&lt;/p&gt;&lt;hr&gt;&lt;p style=&quot;margin:0px;margin-left:8px;&quot;&gt;+ 输入数据: 平滑过的DBP Pump-Probe数据&lt;/p&gt;&lt;p style=&quot;margin:0px;margin-left:8px;&quot;&gt;+ 输入数据: 均匀的lsq拟合的DBP吸收系数&lt;br&gt;+ x范围: 均匀波长范围&lt;/p&gt;&lt;p style=&quot;margin:0px;margin-left:8px;&quot;&gt;+ y范围: kk拟合折射率&lt;/p&gt;&lt;p style=&quot;margin:0px;margin-left:8px;&quot;&gt;+ y范围: 吸收系数&lt;/p&gt;" style="align=left;overflow=fill;html=1;dropTarget=0;strokeColor=#001DBC;strokeWidth=1;fillColor=#0050ef;fontColor=#ffffff;" parent="WIyWlLk6GJQsqaUBKTNV-1" vertex="1">
                    <mxGeometry x="-890" y="929" width="250" height="111" as="geometry"/>
                </mxCell>
                <mxCell id="202" value="" style="shape=component;jettyWidth=8;jettyHeight=4;strokeColor=default;strokeWidth=1;" parent="201" vertex="1">
                    <mxGeometry x="1" width="20" height="20" relative="1" as="geometry">
                        <mxPoint x="-24" y="4" as="offset"/>
                    </mxGeometry>
                </mxCell>
                <mxCell id="203" value="&lt;p style=&quot;margin:0px;margin-top:6px;text-align:center;&quot;&gt;&lt;b&gt;图6-特定波长的时间衰减曲线&lt;/b&gt;&lt;/p&gt;&lt;hr&gt;&lt;p style=&quot;margin:0px;margin-left:8px;&quot;&gt;+ 输入数据: 吸收光谱数据&lt;br&gt;+ x范围: 时间节点，前半线性，后半指数&lt;/p&gt;&lt;p style=&quot;margin:0px;margin-left:8px;&quot;&gt;+ y范围: 吸收光谱数据&lt;/p&gt;" style="align=left;overflow=fill;html=1;dropTarget=0;strokeColor=#001DBC;strokeWidth=1;fillColor=#0050ef;fontColor=#ffffff;" parent="WIyWlLk6GJQsqaUBKTNV-1" vertex="1">
                    <mxGeometry x="-295" y="1150" width="250" height="90" as="geometry"/>
                </mxCell>
                <mxCell id="204" value="" style="shape=component;jettyWidth=8;jettyHeight=4;strokeColor=default;strokeWidth=1;" parent="203" vertex="1">
                    <mxGeometry x="1" width="20" height="20" relative="1" as="geometry">
                        <mxPoint x="-24" y="4" as="offset"/>
                    </mxGeometry>
                </mxCell>
                <mxCell id="205" value="&lt;p style=&quot;margin:0px;margin-top:6px;text-align:center;&quot;&gt;&lt;b&gt;图7-新DBP数据等高线图（有级别）&lt;/b&gt;&lt;/p&gt;&lt;hr&gt;&lt;p style=&quot;margin:0px;margin-left:8px;&quot;&gt;+ 输入数据: 平滑过的新DBP Pump-Probe数据&lt;br&gt;+ x范围: 根据参数选定的波长范围&lt;/p&gt;&lt;p style=&quot;margin:0px;margin-left:8px;&quot;&gt;+ y范围切分: 根据选定的时间节点&lt;/p&gt;&lt;p style=&quot;margin:0px;margin-left:8px;&quot;&gt;+ z范围: 光强&lt;/p&gt;" style="align=left;overflow=fill;html=1;dropTarget=0;strokeColor=#001DBC;strokeWidth=1;fillColor=#0050ef;fontColor=#ffffff;" parent="WIyWlLk6GJQsqaUBKTNV-1" vertex="1">
                    <mxGeometry x="35" y="1250" width="260" height="100" as="geometry"/>
                </mxCell>
                <mxCell id="206" value="" style="shape=component;jettyWidth=8;jettyHeight=4;strokeColor=default;strokeWidth=1;" parent="205" vertex="1">
                    <mxGeometry x="1" width="20" height="20" relative="1" as="geometry">
                        <mxPoint x="-24" y="4" as="offset"/>
                    </mxGeometry>
                </mxCell>
                <mxCell id="217" value="" style="edgeStyle=orthogonalEdgeStyle;html=1;verticalAlign=bottom;endArrow=open;endSize=8;strokeColor=#ff0000;strokeWidth=1;fontSize=12;fontColor=#FFFFFF;entryX=0.5;entryY=0;entryDx=0;entryDy=0;" parent="WIyWlLk6GJQsqaUBKTNV-1" target="197" edge="1">
                    <mxGeometry relative="1" as="geometry">
                        <mxPoint x="-960" y="850" as="targetPoint"/>
                        <mxPoint y="850" as="sourcePoint"/>
                        <Array as="points">
                            <mxPoint y="890"/>
                            <mxPoint x="-1065" y="890"/>
                        </Array>
                    </mxGeometry>
                </mxCell>
                <mxCell id="218" value="" style="edgeStyle=orthogonalEdgeStyle;html=1;verticalAlign=bottom;endArrow=open;endSize=8;strokeColor=#ff0000;strokeWidth=1;fontSize=12;fontColor=#FFFFFF;entryX=0.5;entryY=0;entryDx=0;entryDy=0;" parent="WIyWlLk6GJQsqaUBKTNV-1" target="201" edge="1">
                    <mxGeometry relative="1" as="geometry">
                        <mxPoint x="-565" y="740" as="targetPoint"/>
                        <mxPoint y="850" as="sourcePoint"/>
                        <Array as="points">
                            <mxPoint y="890"/>
                            <mxPoint x="-765" y="890"/>
                        </Array>
                    </mxGeometry>
                </mxCell>
                <mxCell id="219" value="" style="edgeStyle=orthogonalEdgeStyle;html=1;verticalAlign=bottom;endArrow=open;endSize=8;strokeColor=#ff0000;strokeWidth=1;fontSize=12;fontColor=#FFFFFF;exitX=0.495;exitY=0.8;exitDx=0;exitDy=0;exitPerimeter=0;entryX=0.5;entryY=0;entryDx=0;entryDy=0;" parent="WIyWlLk6GJQsqaUBKTNV-1" source="189" target="230" edge="1">
                    <mxGeometry relative="1" as="geometry">
                        <mxPoint x="-465" y="980" as="targetPoint"/>
                        <mxPoint x="-565" y="680" as="sourcePoint"/>
                        <Array as="points">
                            <mxPoint x="-1" y="890"/>
                            <mxPoint x="-490" y="890"/>
                        </Array>
                    </mxGeometry>
                </mxCell>
                <mxCell id="220" value="" style="edgeStyle=orthogonalEdgeStyle;html=1;verticalAlign=bottom;endArrow=open;endSize=8;strokeColor=#ff0000;strokeWidth=1;fontSize=12;fontColor=#FFFFFF;exitX=0.5;exitY=0.5;exitDx=0;exitDy=0;exitPerimeter=0;entryX=0.5;entryY=0;entryDx=0;entryDy=0;" parent="WIyWlLk6GJQsqaUBKTNV-1" source="189" target="249" edge="1">
                    <mxGeometry relative="1" as="geometry">
                        <mxPoint x="-170" y="980" as="targetPoint"/>
                        <mxPoint x="-565" y="680" as="sourcePoint"/>
                        <Array as="points">
                            <mxPoint y="890"/>
                            <mxPoint x="-170" y="890"/>
                        </Array>
                    </mxGeometry>
                </mxCell>
                <mxCell id="221" value="" style="edgeStyle=orthogonalEdgeStyle;html=1;verticalAlign=bottom;endArrow=open;endSize=8;strokeColor=#ff0000;strokeWidth=1;fontSize=12;fontColor=#FFFFFF;entryX=0.5;entryY=0;entryDx=0;entryDy=0;exitX=0.5;exitY=1;exitDx=0;exitDy=0;" parent="WIyWlLk6GJQsqaUBKTNV-1" target="228" edge="1" source="258">
                    <mxGeometry relative="1" as="geometry">
                        <mxPoint y="1020" as="targetPoint"/>
                        <mxPoint y="850" as="sourcePoint"/>
                        <Array as="points">
                            <mxPoint x="165" y="1090"/>
                            <mxPoint y="1090"/>
                        </Array>
                    </mxGeometry>
                </mxCell>
                <mxCell id="224" value="" style="edgeStyle=orthogonalEdgeStyle;html=1;verticalAlign=bottom;endArrow=open;endSize=8;strokeColor=#ff0000;strokeWidth=1;fontSize=12;fontColor=#FFFFFF;exitX=0.5;exitY=1;exitDx=0;exitDy=0;entryX=0.5;entryY=0;entryDx=0;entryDy=0;" parent="WIyWlLk6GJQsqaUBKTNV-1" source="286" target="298" edge="1">
                    <mxGeometry relative="1" as="geometry">
                        <mxPoint x="1065" y="1340" as="targetPoint"/>
                        <mxPoint y="850" as="sourcePoint"/>
                        <Array as="points">
                            <mxPoint x="765" y="1340"/>
                            <mxPoint x="1080" y="1340"/>
                        </Array>
                    </mxGeometry>
                </mxCell>
                <mxCell id="225" value="" style="edgeStyle=orthogonalEdgeStyle;html=1;verticalAlign=bottom;endArrow=open;endSize=8;strokeColor=#ff0000;strokeWidth=1;fontSize=12;fontColor=#FFFFFF;exitX=0.5;exitY=1;exitDx=0;exitDy=0;entryX=0.5;entryY=0;entryDx=0;entryDy=0;" parent="WIyWlLk6GJQsqaUBKTNV-1" source="258" target="284" edge="1">
                    <mxGeometry relative="1" as="geometry">
                        <mxPoint x="765" y="1030" as="targetPoint"/>
                        <mxPoint y="850" as="sourcePoint"/>
                        <Array as="points">
                            <mxPoint x="165" y="1090"/>
                            <mxPoint x="765" y="1090"/>
                        </Array>
                    </mxGeometry>
                </mxCell>
                <mxCell id="226" value="" style="edgeStyle=orthogonalEdgeStyle;html=1;verticalAlign=bottom;endArrow=open;endSize=8;strokeColor=#ff0000;strokeWidth=1;fontSize=12;fontColor=#FFFFFF;exitX=0.5;exitY=1;exitDx=0;exitDy=0;entryX=0.5;entryY=0;entryDx=0;entryDy=0;" parent="WIyWlLk6GJQsqaUBKTNV-1" source="258" target="278" edge="1">
                    <mxGeometry relative="1" as="geometry">
                        <mxPoint x="465" y="1110" as="targetPoint"/>
                        <mxPoint y="850" as="sourcePoint"/>
                        <Array as="points">
                            <mxPoint x="165" y="1090"/>
                            <mxPoint x="480" y="1090"/>
                        </Array>
                    </mxGeometry>
                </mxCell>
                <mxCell id="227" value="" style="edgeStyle=orthogonalEdgeStyle;html=1;verticalAlign=bottom;endArrow=open;endSize=8;strokeColor=#ff0000;strokeWidth=1;fontSize=12;fontColor=#FFFFFF;entryX=0.5;entryY=0;entryDx=0;entryDy=0;" parent="WIyWlLk6GJQsqaUBKTNV-1" target="256" edge="1">
                    <mxGeometry relative="1" as="geometry">
                        <mxPoint x="165" y="930" as="targetPoint"/>
                        <mxPoint y="850" as="sourcePoint"/>
                        <Array as="points">
                            <mxPoint y="890"/>
                            <mxPoint x="165" y="890"/>
                        </Array>
                    </mxGeometry>
                </mxCell>
                <mxCell id="228" value="TMM拟合" style="swimlane;fontStyle=1;align=center;verticalAlign=middle;childLayout=stackLayout;horizontal=1;startSize=30;horizontalStack=0;resizeParent=0;resizeLast=1;container=0;fontColor=#000000;collapsible=0;rounded=1;arcSize=30;strokeColor=#ff0000;fillColor=#ffffc0;swimlaneFillColor=#ffffc0;dropTarget=0;strokeWidth=1;" parent="WIyWlLk6GJQsqaUBKTNV-1" vertex="1">
                    <mxGeometry x="-120" y="1380" width="240" height="100" as="geometry"/>
                </mxCell>
                <mxCell id="229" value="TMM拟合DBP材料的折射率和吸收系数变化。在不同时间t2下，使用瞬态吸收光谱数据和稳态极化激元数据来优化参数" style="text;html=1;strokeColor=none;fillColor=none;align=center;verticalAlign=middle;spacingLeft=4;spacingRight=4;whiteSpace=wrap;overflow=hidden;rotatable=0;fontColor=#000000;strokeWidth=1;" parent="228" vertex="1">
                    <mxGeometry y="30" width="240" height="70" as="geometry"/>
                </mxCell>
                <mxCell id="247" value="" style="edgeStyle=none;html=1;fontColor=#000000;exitX=0;exitY=0.5;exitDx=0;exitDy=0;entryX=0.5;entryY=0;entryDx=0;entryDy=0;" parent="WIyWlLk6GJQsqaUBKTNV-1" source="230" target="233" edge="1">
                    <mxGeometry relative="1" as="geometry"/>
                </mxCell>
                <mxCell id="230" value="t2_samp绘图" style="rounded=1;whiteSpace=wrap;html=1;arcSize=40;fontColor=#000000;fillColor=#ffffc0;strokeColor=#ff0000;" parent="WIyWlLk6GJQsqaUBKTNV-1" vertex="1">
                    <mxGeometry x="-550" y="979" width="120" height="40" as="geometry"/>
                </mxCell>
                <mxCell id="231" value="" style="edgeStyle=orthogonalEdgeStyle;html=1;verticalAlign=bottom;endArrow=open;endSize=8;strokeColor=#ff0000;entryX=0.5;entryY=0;entryDx=0;entryDy=0;" parent="WIyWlLk6GJQsqaUBKTNV-1" source="230" target="199" edge="1">
                    <mxGeometry relative="1" as="geometry">
                        <mxPoint x="-200" y="1180" as="targetPoint"/>
                    </mxGeometry>
                </mxCell>
                <mxCell id="233" value="可调整参数" style="swimlane;fontStyle=0;childLayout=stackLayout;horizontal=1;startSize=30;horizontalStack=0;resizeParent=1;resizeParentMax=0;resizeLast=0;collapsible=1;marginBottom=0;whiteSpace=wrap;html=1;strokeWidth=1;fillColor=#008a00;fontColor=#ffffff;strokeColor=#005700;" parent="WIyWlLk6GJQsqaUBKTNV-1" vertex="1">
                    <mxGeometry x="-750" y="1070" width="200" height="60" as="geometry"/>
                </mxCell>
                <mxCell id="234" value="1. 自选的时间节点t2_samp" style="text;strokeColor=#3A5431;fillColor=#6d8764;align=left;verticalAlign=middle;spacingLeft=4;spacingRight=4;overflow=hidden;points=[[0,0.5],[1,0.5]];portConstraint=eastwest;rotatable=0;whiteSpace=wrap;html=1;strokeWidth=1;fontColor=#ffffff;" parent="233" vertex="1">
                    <mxGeometry y="30" width="200" height="30" as="geometry"/>
                </mxCell>
                <mxCell id="242" value="" style="edgeStyle=none;html=1;fontColor=#000000;exitX=1;exitY=0.5;exitDx=0;exitDy=0;entryX=0;entryY=0;entryDx=0;entryDy=0;" parent="WIyWlLk6GJQsqaUBKTNV-1" source="235" target="75" edge="1">
                    <mxGeometry relative="1" as="geometry"/>
                </mxCell>
                <mxCell id="235" value="&lt;span style=&quot;text-align: left;&quot;&gt;2D卷积平滑&lt;/span&gt;" style="rounded=1;whiteSpace=wrap;html=1;arcSize=40;fontColor=#000000;fillColor=#ffffc0;strokeColor=#ff0000;" parent="WIyWlLk6GJQsqaUBKTNV-1" vertex="1">
                    <mxGeometry x="190" y="230" width="120" height="40" as="geometry"/>
                </mxCell>
                <mxCell id="236" value="" style="edgeStyle=orthogonalEdgeStyle;html=1;verticalAlign=bottom;endArrow=open;endSize=8;strokeColor=#ff0000;fontColor=#000000;entryX=0.5;entryY=0;entryDx=0;entryDy=0;" parent="WIyWlLk6GJQsqaUBKTNV-1" source="235" target="237" edge="1">
                    <mxGeometry relative="1" as="geometry">
                        <mxPoint x="160" y="270" as="targetPoint"/>
                    </mxGeometry>
                </mxCell>
                <mxCell id="243" value="" style="edgeStyle=none;html=1;fontColor=#000000;exitX=1;exitY=0.5;exitDx=0;exitDy=0;entryX=0;entryY=0;entryDx=0;entryDy=0;" parent="WIyWlLk6GJQsqaUBKTNV-1" source="237" target="80" edge="1">
                    <mxGeometry relative="1" as="geometry"/>
                </mxCell>
                <mxCell id="237" value="&lt;span style=&quot;text-align: left;&quot;&gt;把透射率转换到吸光度&lt;/span&gt;" style="rounded=1;whiteSpace=wrap;html=1;arcSize=40;fontColor=#000000;fillColor=#ffffc0;strokeColor=#ff0000;" parent="WIyWlLk6GJQsqaUBKTNV-1" vertex="1">
                    <mxGeometry x="180" y="335" width="140" height="40" as="geometry"/>
                </mxCell>
                <mxCell id="238" value="" style="edgeStyle=orthogonalEdgeStyle;html=1;verticalAlign=bottom;endArrow=open;endSize=8;strokeColor=#ff0000;fontColor=#000000;entryX=0.5;entryY=0;entryDx=0;entryDy=0;" parent="WIyWlLk6GJQsqaUBKTNV-1" source="237" target="239" edge="1">
                    <mxGeometry relative="1" as="geometry">
                        <mxPoint x="110" y="390" as="targetPoint"/>
                    </mxGeometry>
                </mxCell>
                <mxCell id="244" value="" style="edgeStyle=none;html=1;fontColor=#000000;exitX=1;exitY=0.5;exitDx=0;exitDy=0;entryX=0;entryY=0;entryDx=0;entryDy=0;" parent="WIyWlLk6GJQsqaUBKTNV-1" source="239" target="87" edge="1">
                    <mxGeometry relative="1" as="geometry">
                        <mxPoint x="340" y="440" as="targetPoint"/>
                    </mxGeometry>
                </mxCell>
                <mxCell id="239" value="&lt;span style=&quot;text-align: left;&quot;&gt;插值处理&lt;/span&gt;" style="rounded=1;whiteSpace=wrap;html=1;arcSize=40;fontColor=#000000;fillColor=#ffffc0;strokeColor=#ff0000;" parent="WIyWlLk6GJQsqaUBKTNV-1" vertex="1">
                    <mxGeometry x="190" y="440" width="120" height="40" as="geometry"/>
                </mxCell>
                <mxCell id="240" value="" style="edgeStyle=orthogonalEdgeStyle;html=1;verticalAlign=bottom;endArrow=open;endSize=8;strokeColor=#ff0000;fontColor=#000000;entryX=1;entryY=0.5;entryDx=0;entryDy=0;exitX=0;exitY=0.5;exitDx=0;exitDy=0;" parent="WIyWlLk6GJQsqaUBKTNV-1" source="239" target="53" edge="1">
                    <mxGeometry relative="1" as="geometry">
                        <mxPoint x="130" y="380" as="targetPoint"/>
                        <Array as="points">
                            <mxPoint x="120" y="460"/>
                            <mxPoint x="120" y="395"/>
                        </Array>
                    </mxGeometry>
                </mxCell>
                <mxCell id="241" value="" style="edgeStyle=orthogonalEdgeStyle;html=1;verticalAlign=bottom;endArrow=open;endSize=8;strokeColor=#ff0000;fontColor=#000000;entryX=0;entryY=0.5;entryDx=0;entryDy=0;exitX=1;exitY=0.25;exitDx=0;exitDy=0;" parent="WIyWlLk6GJQsqaUBKTNV-1" source="52" target="235" edge="1">
                    <mxGeometry relative="1" as="geometry">
                        <mxPoint x="50" y="200" as="targetPoint"/>
                        <mxPoint x="160" y="280" as="sourcePoint"/>
                        <Array as="points">
                            <mxPoint x="120" y="365"/>
                            <mxPoint x="120" y="250"/>
                        </Array>
                    </mxGeometry>
                </mxCell>
                <mxCell id="245" value="" style="edgeStyle=none;html=1;fontColor=#000000;exitX=1;exitY=0;exitDx=0;exitDy=0;entryX=0;entryY=0;entryDx=0;entryDy=0;" parent="WIyWlLk6GJQsqaUBKTNV-1" source="125" target="120" edge="1">
                    <mxGeometry relative="1" as="geometry"/>
                </mxCell>
                <mxCell id="246" value="" style="edgeStyle=none;html=1;fontColor=#000000;exitX=1;exitY=0;exitDx=0;exitDy=0;entryX=0;entryY=0;entryDx=0;entryDy=0;" parent="WIyWlLk6GJQsqaUBKTNV-1" source="128" target="130" edge="1">
                    <mxGeometry relative="1" as="geometry"/>
                </mxCell>
                <mxCell id="249" value="DAS-DBP时间衰减曲线" style="rounded=1;whiteSpace=wrap;html=1;arcSize=40;fontColor=#000000;fillColor=#ffffc0;strokeColor=#ff0000;" parent="WIyWlLk6GJQsqaUBKTNV-1" vertex="1">
                    <mxGeometry x="-240" y="979" width="140" height="40" as="geometry"/>
                </mxCell>
                <mxCell id="250" value="" style="edgeStyle=orthogonalEdgeStyle;html=1;verticalAlign=bottom;endArrow=open;endSize=8;strokeColor=#ff0000;fontColor=#000000;entryX=0.5;entryY=0;entryDx=0;entryDy=0;" parent="WIyWlLk6GJQsqaUBKTNV-1" source="249" target="203" edge="1">
                    <mxGeometry relative="1" as="geometry">
                        <mxPoint x="-170" y="1100" as="targetPoint"/>
                    </mxGeometry>
                </mxCell>
                <mxCell id="251" value="可调整参数" style="swimlane;fontStyle=0;childLayout=stackLayout;horizontal=1;startSize=30;horizontalStack=0;resizeParent=1;resizeParentMax=0;resizeLast=0;collapsible=1;marginBottom=0;whiteSpace=wrap;html=1;strokeWidth=1;fillColor=#008a00;fontColor=#ffffff;strokeColor=#005700;" parent="WIyWlLk6GJQsqaUBKTNV-1" vertex="1">
                    <mxGeometry x="-453" y="1040" width="240" height="90" as="geometry"/>
                </mxCell>
                <mxCell id="252" value="1. 自选节点把tw切分成线性部分和指数部分" style="text;strokeColor=#3A5431;fillColor=#6d8764;align=left;verticalAlign=middle;spacingLeft=4;spacingRight=4;overflow=hidden;points=[[0,0.5],[1,0.5]];portConstraint=eastwest;rotatable=0;whiteSpace=wrap;html=1;strokeWidth=1;fontColor=#ffffff;" parent="251" vertex="1">
                    <mxGeometry y="30" width="240" height="30" as="geometry"/>
                </mxCell>
                <mxCell id="255" value="2. 选取两个波长序号" style="text;strokeColor=#3A5431;fillColor=#6d8764;align=left;verticalAlign=middle;spacingLeft=4;spacingRight=4;overflow=hidden;points=[[0,0.5],[1,0.5]];portConstraint=eastwest;rotatable=0;whiteSpace=wrap;html=1;strokeWidth=1;fontColor=#ffffff;" parent="251" vertex="1">
                    <mxGeometry y="60" width="240" height="30" as="geometry"/>
                </mxCell>
                <mxCell id="253" value="" style="edgeStyle=none;html=1;fontColor=#000000;exitX=0;exitY=0.5;exitDx=0;exitDy=0;entryX=0.5;entryY=0;entryDx=0;entryDy=0;" parent="WIyWlLk6GJQsqaUBKTNV-1" source="249" target="251" edge="1">
                    <mxGeometry relative="1" as="geometry">
                        <mxPoint x="-540" y="1008.9999999999998" as="sourcePoint"/>
                        <mxPoint x="-540" y="1080" as="targetPoint"/>
                    </mxGeometry>
                </mxCell>
                <mxCell id="256" value="加载新orgi数据" style="rounded=1;whiteSpace=wrap;html=1;arcSize=40;fontColor=#000000;fillColor=#ffffc0;strokeColor=#ff0000;" parent="WIyWlLk6GJQsqaUBKTNV-1" vertex="1">
                    <mxGeometry x="105" y="920" width="120" height="40" as="geometry"/>
                </mxCell>
                <mxCell id="257" value="" style="edgeStyle=orthogonalEdgeStyle;html=1;verticalAlign=bottom;endArrow=open;endSize=8;strokeColor=#ff0000;fontColor=#000000;entryX=0.5;entryY=0;entryDx=0;entryDy=0;" parent="WIyWlLk6GJQsqaUBKTNV-1" source="256" target="258" edge="1">
                    <mxGeometry relative="1" as="geometry">
                        <mxPoint x="150" y="1049" as="targetPoint"/>
                    </mxGeometry>
                </mxCell>
                <mxCell id="263" value="" style="edgeStyle=none;html=1;fontColor=#000000;exitX=1;exitY=0.5;exitDx=0;exitDy=0;entryX=0;entryY=0;entryDx=0;entryDy=0;" parent="WIyWlLk6GJQsqaUBKTNV-1" source="258" target="260" edge="1">
                    <mxGeometry relative="1" as="geometry"/>
                </mxCell>
                <mxCell id="258" value="&lt;span style=&quot;text-align: left;&quot;&gt;2D卷积平滑&lt;/span&gt;" style="rounded=1;whiteSpace=wrap;html=1;arcSize=40;fontColor=#000000;fillColor=#ffffc0;strokeColor=#ff0000;" parent="WIyWlLk6GJQsqaUBKTNV-1" vertex="1">
                    <mxGeometry x="105" y="990" width="120" height="40" as="geometry"/>
                </mxCell>
                <mxCell id="259" value="" style="edgeStyle=orthogonalEdgeStyle;html=1;verticalAlign=bottom;endArrow=open;endSize=8;strokeColor=#ff0000;fontColor=#000000;entryX=0.5;entryY=0;entryDx=0;entryDy=0;" parent="WIyWlLk6GJQsqaUBKTNV-1" source="258" target="271" edge="1">
                    <mxGeometry relative="1" as="geometry">
                        <mxPoint x="165" y="1110" as="targetPoint"/>
                    </mxGeometry>
                </mxCell>
                <mxCell id="260" value="可调整参数" style="swimlane;fontStyle=0;childLayout=stackLayout;horizontal=1;startSize=30;horizontalStack=0;resizeParent=1;resizeParentMax=0;resizeLast=0;collapsible=1;marginBottom=0;whiteSpace=wrap;html=1;strokeWidth=1;fillColor=#008a00;fontColor=#ffffff;strokeColor=#005700;" parent="WIyWlLk6GJQsqaUBKTNV-1" vertex="1">
                    <mxGeometry x="260" y="965" width="140" height="90" as="geometry"/>
                </mxCell>
                <mxCell id="261" value="1. 卷积区间（5x5）" style="text;strokeColor=#3A5431;fillColor=#6d8764;align=left;verticalAlign=middle;spacingLeft=4;spacingRight=4;overflow=hidden;points=[[0,0.5],[1,0.5]];portConstraint=eastwest;rotatable=0;whiteSpace=wrap;html=1;strokeWidth=1;fontColor=#ffffff;" parent="260" vertex="1">
                    <mxGeometry y="30" width="140" height="30" as="geometry"/>
                </mxCell>
                <mxCell id="262" value="2. 滤波器类型（same）" style="text;strokeColor=#3A5431;fillColor=#6d8764;align=left;verticalAlign=middle;spacingLeft=4;spacingRight=4;overflow=hidden;points=[[0,0.5],[1,0.5]];portConstraint=eastwest;rotatable=0;whiteSpace=wrap;html=1;strokeWidth=1;fontColor=#ffffff;" parent="260" vertex="1">
                    <mxGeometry y="60" width="140" height="30" as="geometry"/>
                </mxCell>
                <mxCell id="267" value="可调整参数" style="swimlane;fontStyle=0;childLayout=stackLayout;horizontal=1;startSize=30;horizontalStack=0;resizeParent=1;resizeParentMax=0;resizeLast=0;collapsible=1;marginBottom=0;whiteSpace=wrap;html=1;strokeWidth=1;fillColor=#008a00;fontColor=#ffffff;strokeColor=#005700;" parent="WIyWlLk6GJQsqaUBKTNV-1" vertex="1">
                    <mxGeometry x="260" y="1150" width="140" height="60" as="geometry"/>
                </mxCell>
                <mxCell id="268" value="1. 等高线级别" style="text;strokeColor=#3A5431;fillColor=#6d8764;align=left;verticalAlign=middle;spacingLeft=4;spacingRight=4;overflow=hidden;points=[[0,0.5],[1,0.5]];portConstraint=eastwest;rotatable=0;whiteSpace=wrap;html=1;strokeWidth=1;fontColor=#ffffff;" parent="267" vertex="1">
                    <mxGeometry y="30" width="140" height="30" as="geometry"/>
                </mxCell>
                <mxCell id="271" value="等高线图" style="swimlane;fontStyle=1;align=center;verticalAlign=middle;childLayout=stackLayout;horizontal=1;startSize=30;horizontalStack=0;resizeParent=0;resizeLast=1;container=0;fontColor=#000000;collapsible=0;rounded=1;arcSize=30;strokeColor=#ff0000;fillColor=#ffffc0;swimlaneFillColor=#ffffc0;dropTarget=0;" parent="WIyWlLk6GJQsqaUBKTNV-1" vertex="1">
                    <mxGeometry x="95" y="1120" width="140" height="60" as="geometry"/>
                </mxCell>
                <mxCell id="272" value="选取两个等高线级别" style="text;html=1;strokeColor=none;fillColor=none;align=center;verticalAlign=middle;spacingLeft=4;spacingRight=4;whiteSpace=wrap;overflow=hidden;rotatable=0;fontColor=#000000;" parent="271" vertex="1">
                    <mxGeometry y="30" width="140" height="30" as="geometry"/>
                </mxCell>
                <mxCell id="273" value="" style="edgeStyle=orthogonalEdgeStyle;html=1;verticalAlign=bottom;endArrow=open;endSize=8;strokeColor=#ff0000;fontColor=#000000;entryX=0.5;entryY=0;entryDx=0;entryDy=0;" parent="WIyWlLk6GJQsqaUBKTNV-1" source="271" target="205" edge="1">
                    <mxGeometry relative="1" as="geometry">
                        <mxPoint x="180" y="1195" as="targetPoint"/>
                    </mxGeometry>
                </mxCell>
                <mxCell id="274" value="" style="edgeStyle=none;html=1;fontColor=#000000;exitX=1;exitY=0;exitDx=0;exitDy=0;entryX=0;entryY=0;entryDx=0;entryDy=0;" parent="WIyWlLk6GJQsqaUBKTNV-1" source="272" target="267" edge="1">
                    <mxGeometry relative="1" as="geometry">
                        <mxPoint x="245" y="1170" as="targetPoint"/>
                    </mxGeometry>
                </mxCell>
                <mxCell id="275" value="&lt;p style=&quot;margin:0px;margin-top:6px;text-align:center;&quot;&gt;&lt;b&gt;图8-特定波长的时间衰减曲线&lt;/b&gt;&lt;/p&gt;&lt;hr&gt;&lt;p style=&quot;margin:0px;margin-left:8px;&quot;&gt;+ 输入数据:平滑过的新DBP Pump-Probe数据&lt;br&gt;+ x范围: 时间节点，前半线性，后半指数&lt;/p&gt;&lt;p style=&quot;margin:0px;margin-left:8px;&quot;&gt;+ y范围: 吸收光谱数据&lt;/p&gt;" style="align=left;overflow=fill;html=1;dropTarget=0;strokeColor=#001DBC;strokeWidth=1;fillColor=#0050ef;fontColor=#ffffff;" parent="WIyWlLk6GJQsqaUBKTNV-1" vertex="1">
                    <mxGeometry x="352.5" y="1250" width="255" height="90" as="geometry"/>
                </mxCell>
                <mxCell id="276" value="" style="shape=component;jettyWidth=8;jettyHeight=4;strokeColor=default;strokeWidth=1;" parent="275" vertex="1">
                    <mxGeometry x="1" width="20" height="20" relative="1" as="geometry">
                        <mxPoint x="-24" y="4" as="offset"/>
                    </mxGeometry>
                </mxCell>
                <mxCell id="283" value="" style="edgeStyle=none;html=1;fontColor=#000000;exitX=1;exitY=0.5;exitDx=0;exitDy=0;entryX=0;entryY=0;entryDx=0;entryDy=0;" parent="WIyWlLk6GJQsqaUBKTNV-1" source="278" target="280" edge="1">
                    <mxGeometry relative="1" as="geometry"/>
                </mxCell>
                <mxCell id="278" value="DAS-Polariton 时间衰减曲线" style="rounded=1;whiteSpace=wrap;html=1;arcSize=40;fontColor=#000000;fillColor=#ffffc0;strokeColor=#ff0000;" parent="WIyWlLk6GJQsqaUBKTNV-1" vertex="1">
                    <mxGeometry x="420" y="1120" width="120" height="50" as="geometry"/>
                </mxCell>
                <mxCell id="279" value="" style="edgeStyle=orthogonalEdgeStyle;html=1;verticalAlign=bottom;endArrow=open;endSize=8;strokeColor=#ff0000;fontColor=#000000;entryX=0.5;entryY=0;entryDx=0;entryDy=0;" parent="WIyWlLk6GJQsqaUBKTNV-1" source="278" target="275" edge="1">
                    <mxGeometry relative="1" as="geometry">
                        <mxPoint x="140" y="1140" as="targetPoint"/>
                    </mxGeometry>
                </mxCell>
                <mxCell id="280" value="可调整参数" style="swimlane;fontStyle=0;childLayout=stackLayout;horizontal=1;startSize=30;horizontalStack=0;resizeParent=1;resizeParentMax=0;resizeLast=0;collapsible=1;marginBottom=0;whiteSpace=wrap;html=1;strokeWidth=1;fillColor=#008a00;fontColor=#ffffff;strokeColor=#005700;" parent="WIyWlLk6GJQsqaUBKTNV-1" vertex="1">
                    <mxGeometry x="550" y="1170" width="140" height="60" as="geometry"/>
                </mxCell>
                <mxCell id="281" value="1. 起始时间延迟t2_0" style="text;strokeColor=#3A5431;fillColor=#6d8764;align=left;verticalAlign=middle;spacingLeft=4;spacingRight=4;overflow=hidden;points=[[0,0.5],[1,0.5]];portConstraint=eastwest;rotatable=0;whiteSpace=wrap;html=1;strokeWidth=1;fontColor=#ffffff;" parent="280" vertex="1">
                    <mxGeometry y="30" width="140" height="30" as="geometry"/>
                </mxCell>
                <mxCell id="284" value="t2_samp绘图" style="rounded=1;whiteSpace=wrap;html=1;arcSize=40;fontColor=#000000;fillColor=#ffffc0;strokeColor=#ff0000;" parent="WIyWlLk6GJQsqaUBKTNV-1" vertex="1">
                    <mxGeometry x="705" y="1120" width="120" height="40" as="geometry"/>
                </mxCell>
                <mxCell id="296" value="" style="edgeStyle=none;html=1;fontColor=#000000;entryX=0;entryY=0;entryDx=0;entryDy=0;exitX=1;exitY=0.5;exitDx=0;exitDy=0;" parent="WIyWlLk6GJQsqaUBKTNV-1" source="286" target="292" edge="1">
                    <mxGeometry relative="1" as="geometry"/>
                </mxCell>
                <mxCell id="286" value="&lt;span style=&quot;text-align: left;&quot;&gt;插值处理，得到&lt;/span&gt;&lt;span style=&quot;font-family: Consolas, &amp;quot;Courier New&amp;quot;, monospace; font-size: 14px;&quot;&gt;meas_p_pp&lt;/span&gt;" style="rounded=1;whiteSpace=wrap;html=1;arcSize=40;fontColor=#000000;fillColor=#ffffc0;strokeColor=#ff0000;" parent="WIyWlLk6GJQsqaUBKTNV-1" vertex="1">
                    <mxGeometry x="705" y="1220" width="120" height="40" as="geometry"/>
                </mxCell>
                <mxCell id="289" value="" style="edgeStyle=orthogonalEdgeStyle;html=1;verticalAlign=bottom;endArrow=open;endSize=8;strokeColor=#ff0000;fontColor=#000000;entryX=0.5;entryY=0;entryDx=0;entryDy=0;exitX=0.5;exitY=1;exitDx=0;exitDy=0;" parent="WIyWlLk6GJQsqaUBKTNV-1" source="284" target="286" edge="1">
                    <mxGeometry relative="1" as="geometry">
                        <mxPoint x="490" y="1260" as="targetPoint"/>
                        <mxPoint x="490" y="1180" as="sourcePoint"/>
                    </mxGeometry>
                </mxCell>
                <mxCell id="290" value="&lt;p style=&quot;margin:0px;margin-top:6px;text-align:center;&quot;&gt;&lt;b&gt;图9-选取的时间点光谱图，中分时间点&lt;/b&gt;&lt;/p&gt;&lt;hr&gt;&lt;p style=&quot;margin:0px;margin-left:8px;&quot;&gt;+ 输入数据: 均匀的新极化激元瞬态吸收光谱数据&lt;br&gt;+ x范围: 均匀波长范围&lt;/p&gt;&lt;p style=&quot;margin:0px;margin-left:8px;&quot;&gt;+ y范围: 吸收光谱数据&lt;/p&gt;" style="align=left;overflow=fill;html=1;dropTarget=0;strokeColor=#001DBC;strokeWidth=1;fillColor=#0050ef;fontColor=#ffffff;" parent="WIyWlLk6GJQsqaUBKTNV-1" vertex="1">
                    <mxGeometry x="625" y="1390" width="280" height="90" as="geometry"/>
                </mxCell>
                <mxCell id="291" value="" style="shape=component;jettyWidth=8;jettyHeight=4;strokeColor=default;strokeWidth=1;" parent="290" vertex="1">
                    <mxGeometry x="1" width="20" height="20" relative="1" as="geometry">
                        <mxPoint x="-24" y="4" as="offset"/>
                    </mxGeometry>
                </mxCell>
                <mxCell id="292" value="可调整参数" style="swimlane;fontStyle=0;childLayout=stackLayout;horizontal=1;startSize=30;horizontalStack=0;resizeParent=1;resizeParentMax=0;resizeLast=0;collapsible=1;marginBottom=0;whiteSpace=wrap;html=1;strokeWidth=1;fillColor=#008a00;fontColor=#ffffff;strokeColor=#005700;" parent="WIyWlLk6GJQsqaUBKTNV-1" vertex="1">
                    <mxGeometry x="870" y="1220" width="165" height="90" as="geometry">
                        <mxRectangle x="470" y="450" width="100" height="30" as="alternateBounds"/>
                    </mxGeometry>
                </mxCell>
                <mxCell id="293" value="1. 选取时间点（2:574）" style="text;strokeColor=#3A5431;fillColor=#6d8764;align=left;verticalAlign=middle;spacingLeft=4;spacingRight=4;overflow=hidden;points=[[0,0.5],[1,0.5]];portConstraint=eastwest;rotatable=0;whiteSpace=wrap;html=1;strokeWidth=1;fontColor=#ffffff;" parent="292" vertex="1">
                    <mxGeometry y="30" width="165" height="30" as="geometry"/>
                </mxCell>
                <mxCell id="294" value="2. 选取从第几个开头（50）" style="text;strokeColor=#3A5431;fillColor=#6d8764;align=left;verticalAlign=middle;spacingLeft=4;spacingRight=4;overflow=hidden;points=[[0,0.5],[1,0.5]];portConstraint=eastwest;rotatable=0;whiteSpace=wrap;html=1;strokeWidth=1;fontColor=#ffffff;" parent="292" vertex="1">
                    <mxGeometry y="60" width="165" height="30" as="geometry"/>
                </mxCell>
                <mxCell id="297" value="" style="edgeStyle=orthogonalEdgeStyle;html=1;verticalAlign=bottom;endArrow=open;endSize=8;strokeColor=#ff0000;fontColor=#000000;entryX=0.5;entryY=0;entryDx=0;entryDy=0;exitX=0.5;exitY=1;exitDx=0;exitDy=0;" parent="WIyWlLk6GJQsqaUBKTNV-1" source="286" target="290" edge="1">
                    <mxGeometry relative="1" as="geometry">
                        <mxPoint x="774.9999999999995" y="1210" as="targetPoint"/>
                        <mxPoint x="774.9999999999995" y="1170" as="sourcePoint"/>
                    </mxGeometry>
                </mxCell>
                <mxCell id="298" value="&lt;p style=&quot;margin:0px;margin-top:6px;text-align:center;&quot;&gt;&lt;b&gt;图10-选取的时间点光谱图，单图&lt;/b&gt;&lt;/p&gt;&lt;hr&gt;&lt;p style=&quot;margin:0px;margin-left:8px;&quot;&gt;+ 输入数据: 均匀的新极化激元瞬态吸收光谱数据&lt;br&gt;+ x范围: 均匀波长范围&lt;/p&gt;&lt;p style=&quot;margin:0px;margin-left:8px;&quot;&gt;+ y范围: 吸收光谱数据&lt;/p&gt;" style="align=left;overflow=fill;html=1;dropTarget=0;strokeColor=#001DBC;strokeWidth=1;fillColor=#0050ef;fontColor=#ffffff;" parent="WIyWlLk6GJQsqaUBKTNV-1" vertex="1">
                    <mxGeometry x="940" y="1390" width="280" height="90" as="geometry"/>
                </mxCell>
                <mxCell id="299" value="" style="shape=component;jettyWidth=8;jettyHeight=4;strokeColor=default;strokeWidth=1;" parent="298" vertex="1">
                    <mxGeometry x="1" width="20" height="20" relative="1" as="geometry">
                        <mxPoint x="-24" y="4" as="offset"/>
                    </mxGeometry>
                </mxCell>
                <mxCell id="306" value="" style="edgeStyle=orthogonalEdgeStyle;html=1;verticalAlign=bottom;endArrow=open;endSize=8;strokeColor=#ff0000;fontColor=#000000;exitX=0.5;exitY=1;exitDx=0;exitDy=0;entryX=0.5;entryY=0;entryDx=0;entryDy=0;" parent="WIyWlLk6GJQsqaUBKTNV-1" source="229" target="307" edge="1">
                    <mxGeometry relative="1" as="geometry">
                        <mxPoint x="10" y="1660" as="targetPoint"/>
                        <mxPoint x="10" y="1600" as="sourcePoint"/>
                    </mxGeometry>
                </mxCell>
                <mxCell id="307" value="数据读取" style="rounded=1;whiteSpace=wrap;html=1;arcSize=40;fontColor=#000000;fillColor=#ffffc0;strokeColor=#ff0000;labelBackgroundColor=none;" parent="WIyWlLk6GJQsqaUBKTNV-1" vertex="1">
                    <mxGeometry x="-60" y="1560" width="120" height="40" as="geometry"/>
                </mxCell>
                <mxCell id="308" value="" style="edgeStyle=orthogonalEdgeStyle;html=1;verticalAlign=bottom;endArrow=open;endSize=8;strokeColor=#ff0000;fontColor=#000000;entryX=0.5;entryY=0;entryDx=0;entryDy=0;" parent="WIyWlLk6GJQsqaUBKTNV-1" source="307" edge="1" target="318">
                    <mxGeometry relative="1" as="geometry">
                        <mxPoint y="1700" as="targetPoint"/>
                    </mxGeometry>
                </mxCell>
                <mxCell id="309" value="数据读取" style="swimlane;fontStyle=0;childLayout=stackLayout;horizontal=1;startSize=30;horizontalStack=0;resizeParent=1;resizeParentMax=0;resizeLast=0;collapsible=1;marginBottom=0;whiteSpace=wrap;html=1;swimlaneFillColor=none;fillColor=none;fontColor=#ffffff;strokeColor=#FFFFFF;" parent="WIyWlLk6GJQsqaUBKTNV-1" vertex="1">
                    <mxGeometry x="-310" y="1520" width="200" height="180" as="geometry"/>
                </mxCell>
                <mxCell id="310" value="1. DBP厚度110nm" style="text;strokeColor=default;fillColor=default;align=left;verticalAlign=middle;spacingLeft=4;spacingRight=4;overflow=hidden;points=[[0,0.5],[1,0.5]];portConstraint=eastwest;rotatable=0;whiteSpace=wrap;html=1;" parent="309" vertex="1">
                    <mxGeometry y="30" width="200" height="30" as="geometry"/>
                </mxCell>
                <mxCell id="311" value="2. 腔模反射（ref_cav）" style="text;strokeColor=default;fillColor=none;align=left;verticalAlign=middle;spacingLeft=4;spacingRight=4;overflow=hidden;points=[[0,0.5],[1,0.5]];portConstraint=eastwest;rotatable=0;whiteSpace=wrap;html=1;" parent="309" vertex="1">
                    <mxGeometry y="60" width="200" height="30" as="geometry"/>
                </mxCell>
                <mxCell id="312" value="3. 100nm银薄膜反射（ref_Ag100）" style="text;strokeColor=default;fillColor=none;align=left;verticalAlign=middle;spacingLeft=4;spacingRight=4;overflow=hidden;points=[[0,0.5],[1,0.5]];portConstraint=eastwest;rotatable=0;whiteSpace=wrap;html=1;" parent="309" vertex="1">
                    <mxGeometry y="90" width="200" height="30" as="geometry"/>
                </mxCell>
                <mxCell id="313" value="4. 30nm银薄膜透射（trans_Ag30）" style="text;strokeColor=default;fillColor=none;align=left;verticalAlign=middle;spacingLeft=4;spacingRight=4;overflow=hidden;points=[[0,0.5],[1,0.5]];portConstraint=eastwest;rotatable=0;whiteSpace=wrap;html=1;" parent="309" vertex="1">
                    <mxGeometry y="120" width="200" height="30" as="geometry"/>
                </mxCell>
                <mxCell id="315" value="5. 稳态极化激元（Pol_st）" style="text;strokeColor=default;fillColor=none;align=left;verticalAlign=middle;spacingLeft=4;spacingRight=4;overflow=hidden;points=[[0,0.5],[1,0.5]];portConstraint=eastwest;rotatable=0;whiteSpace=wrap;html=1;" vertex="1" parent="309">
                    <mxGeometry y="150" width="200" height="30" as="geometry"/>
                </mxCell>
                <mxCell id="314" value="" style="endArrow=none;dashed=1;html=1;dashPattern=1 3;strokeWidth=2;fontColor=#000000;entryX=0;entryY=0.5;entryDx=0;entryDy=0;exitX=1;exitY=0;exitDx=0;exitDy=0;" parent="WIyWlLk6GJQsqaUBKTNV-1" source="309" target="307" edge="1">
                    <mxGeometry width="50" height="50" relative="1" as="geometry">
                        <mxPoint x="-330" y="1540" as="sourcePoint"/>
                        <mxPoint x="-280" y="1490" as="targetPoint"/>
                    </mxGeometry>
                </mxCell>
                <mxCell id="323" value="" style="edgeStyle=none;html=1;exitX=1;exitY=0.5;exitDx=0;exitDy=0;entryX=0.5;entryY=0;entryDx=0;entryDy=0;" edge="1" parent="WIyWlLk6GJQsqaUBKTNV-1" source="318" target="320">
                    <mxGeometry relative="1" as="geometry"/>
                </mxCell>
                <mxCell id="318" value="非线性最小二乘法拟合" style="rounded=1;whiteSpace=wrap;html=1;arcSize=40;fontColor=#000000;fillColor=#ffffc0;strokeColor=#ff0000;" vertex="1" parent="WIyWlLk6GJQsqaUBKTNV-1">
                    <mxGeometry x="-70" y="1680" width="140" height="40" as="geometry"/>
                </mxCell>
                <mxCell id="319" value="" style="edgeStyle=orthogonalEdgeStyle;html=1;verticalAlign=bottom;endArrow=open;endSize=8;strokeColor=#ff0000;" edge="1" source="318" parent="WIyWlLk6GJQsqaUBKTNV-1" target="360">
                    <mxGeometry relative="1" as="geometry">
                        <mxPoint y="1820" as="targetPoint"/>
                    </mxGeometry>
                </mxCell>
                <mxCell id="320" value="可调整参数" style="swimlane;fontStyle=0;childLayout=stackLayout;horizontal=1;startSize=30;horizontalStack=0;resizeParent=1;resizeParentMax=0;resizeLast=0;collapsible=1;marginBottom=0;whiteSpace=wrap;html=1;strokeWidth=1;fillColor=#008a00;fontColor=#ffffff;strokeColor=#005700;" vertex="1" parent="WIyWlLk6GJQsqaUBKTNV-1">
                    <mxGeometry x="20" y="1740" width="170" height="60" as="geometry"/>
                </mxCell>
                <mxCell id="321" value="&lt;span style=&quot;color: rgb(240, 240, 240);&quot;&gt;1. 初始猜测参数（c0）&lt;/span&gt;" style="text;strokeColor=#3A5431;fillColor=#6d8764;align=left;verticalAlign=middle;spacingLeft=4;spacingRight=4;overflow=hidden;points=[[0,0.5],[1,0.5]];portConstraint=eastwest;rotatable=0;whiteSpace=wrap;html=1;strokeWidth=1;fontColor=#ffffff;" vertex="1" parent="320">
                    <mxGeometry y="30" width="170" height="30" as="geometry"/>
                </mxCell>
                <mxCell id="330" value="" style="edgeStyle=none;html=1;exitX=1;exitY=0.5;exitDx=0;exitDy=0;entryX=0;entryY=0;entryDx=0;entryDy=0;" edge="1" parent="WIyWlLk6GJQsqaUBKTNV-1" source="324" target="327">
                    <mxGeometry relative="1" as="geometry"/>
                </mxCell>
                <mxCell id="324" value="定义函数，调用TMM_DBP计算光的透射和反射特性" style="rounded=1;whiteSpace=wrap;html=1;arcSize=40;fontColor=#000000;fillColor=#ffffc0;strokeColor=#ff0000;" vertex="1" parent="WIyWlLk6GJQsqaUBKTNV-1">
                    <mxGeometry x="240" y="1500" width="130" height="60" as="geometry"/>
                </mxCell>
                <mxCell id="325" value="" style="edgeStyle=orthogonalEdgeStyle;html=1;verticalAlign=bottom;endArrow=open;endSize=8;strokeColor=#ff0000;exitX=1;exitY=0.25;exitDx=0;exitDy=0;entryX=0;entryY=0.5;entryDx=0;entryDy=0;" edge="1" source="318" parent="WIyWlLk6GJQsqaUBKTNV-1" target="324">
                    <mxGeometry relative="1" as="geometry">
                        <mxPoint x="250" y="1610" as="targetPoint"/>
                        <Array as="points">
                            <mxPoint x="210" y="1690"/>
                            <mxPoint x="210" y="1530"/>
                        </Array>
                    </mxGeometry>
                </mxCell>
                <mxCell id="327" value="可调整参数" style="swimlane;fontStyle=0;childLayout=stackLayout;horizontal=1;startSize=30;horizontalStack=0;resizeParent=1;resizeParentMax=0;resizeLast=0;collapsible=1;marginBottom=0;whiteSpace=wrap;html=1;strokeWidth=1;fillColor=#008a00;fontColor=#ffffff;strokeColor=#005700;" vertex="1" parent="WIyWlLk6GJQsqaUBKTNV-1">
                    <mxGeometry x="412.5" y="1450" width="170" height="190" as="geometry"/>
                </mxCell>
                <mxCell id="329" value="1. 均匀插值精度（len=300）&lt;span style=&quot;&quot;&gt;&#9;&lt;/span&gt;" style="text;strokeColor=#3A5431;fillColor=#6d8764;align=left;verticalAlign=middle;spacingLeft=4;spacingRight=4;overflow=hidden;points=[[0,0.5],[1,0.5]];portConstraint=eastwest;rotatable=0;whiteSpace=wrap;html=1;strokeWidth=1;fontColor=#ffffff;" vertex="1" parent="327">
                    <mxGeometry y="30" width="170" height="30" as="geometry"/>
                </mxCell>
                <mxCell id="334" value="2. 拟合参数（0.15）&lt;span style=&quot;&quot;&gt;&lt;/span&gt;" style="text;strokeColor=#3A5431;fillColor=#6d8764;align=left;verticalAlign=middle;spacingLeft=4;spacingRight=4;overflow=hidden;points=[[0,0.5],[1,0.5]];portConstraint=eastwest;rotatable=0;whiteSpace=wrap;html=1;strokeWidth=1;fontColor=#ffffff;" vertex="1" parent="327">
                    <mxGeometry y="60" width="170" height="30" as="geometry"/>
                </mxCell>
                <mxCell id="335" value="3. 当前时间点，从t2_samp中选取&lt;span style=&quot;&quot;&gt;&lt;/span&gt;" style="text;strokeColor=#3A5431;fillColor=#6d8764;align=left;verticalAlign=middle;spacingLeft=4;spacingRight=4;overflow=hidden;points=[[0,0.5],[1,0.5]];portConstraint=eastwest;rotatable=0;whiteSpace=wrap;html=1;strokeWidth=1;fontColor=#ffffff;" vertex="1" parent="327">
                    <mxGeometry y="90" width="170" height="40" as="geometry"/>
                </mxCell>
                <mxCell id="340" value="4. 拟合参数c(1)，&lt;span style=&quot;&quot;&gt;&lt;/span&gt;&lt;span style=&quot;font-family: Consolas, &amp;quot;Courier New&amp;quot;, monospace; font-size: 14px;&quot;&gt;Δ𝑘𝑖&lt;/span&gt;" style="text;strokeColor=#3A5431;fillColor=#6d8764;align=left;verticalAlign=middle;spacingLeft=4;spacingRight=4;overflow=hidden;points=[[0,0.5],[1,0.5]];portConstraint=eastwest;rotatable=0;whiteSpace=wrap;html=1;strokeWidth=1;fontColor=#ffffff;" vertex="1" parent="327">
                    <mxGeometry y="130" width="170" height="30" as="geometry"/>
                </mxCell>
                <mxCell id="341" value="5. 拟合参数c(2)，&lt;span style=&quot;font-family: Consolas, &amp;quot;Courier New&amp;quot;, monospace; font-size: 14px;&quot;&gt;Δ&lt;/span&gt;&lt;span style=&quot;font-family: Consolas, &amp;quot;Courier New&amp;quot;, monospace; font-size: 14px;&quot;&gt;𝑛&lt;/span&gt;" style="text;strokeColor=#3A5431;fillColor=#6d8764;align=left;verticalAlign=middle;spacingLeft=4;spacingRight=4;overflow=hidden;points=[[0,0.5],[1,0.5]];portConstraint=eastwest;rotatable=0;whiteSpace=wrap;html=1;strokeWidth=1;fontColor=#ffffff;" vertex="1" parent="327">
                    <mxGeometry y="160" width="170" height="30" as="geometry"/>
                </mxCell>
                <mxCell id="344" value="" style="edgeStyle=orthogonalEdgeStyle;html=1;verticalAlign=bottom;endArrow=open;endSize=8;strokeColor=#ff0000;fontColor=#FFFFFF;exitX=0.5;exitY=1;exitDx=0;exitDy=0;entryX=0.5;entryY=0;entryDx=0;entryDy=0;" edge="1" parent="WIyWlLk6GJQsqaUBKTNV-1" source="324" target="348">
                    <mxGeometry relative="1" as="geometry">
                        <mxPoint x="305" y="1650" as="targetPoint"/>
                        <mxPoint x="315" y="1730" as="sourcePoint"/>
                    </mxGeometry>
                </mxCell>
                <mxCell id="348" value="拟合过程" style="swimlane;fontStyle=1;align=center;verticalAlign=middle;childLayout=stackLayout;horizontal=1;startSize=30;horizontalStack=0;resizeParent=0;resizeLast=1;container=0;fontColor=#000000;collapsible=0;rounded=1;arcSize=30;strokeColor=#ff0000;fillColor=#ffffc0;swimlaneFillColor=#ffffc0;dropTarget=0;labelBackgroundColor=none;" vertex="1" parent="WIyWlLk6GJQsqaUBKTNV-1">
                    <mxGeometry x="225" y="1620" width="160" height="70" as="geometry"/>
                </mxCell>
                <mxCell id="349" value="用lsqnonlin最小化输入函数与输出函数之间的差异" style="text;html=1;strokeColor=none;fillColor=none;align=center;verticalAlign=middle;spacingLeft=4;spacingRight=4;whiteSpace=wrap;overflow=hidden;rotatable=0;fontColor=#000000;labelBackgroundColor=none;" vertex="1" parent="348">
                    <mxGeometry y="30" width="160" height="40" as="geometry"/>
                </mxCell>
                <mxCell id="350" value="" style="edgeStyle=orthogonalEdgeStyle;html=1;verticalAlign=bottom;endArrow=open;endSize=8;strokeColor=#ff0000;fontColor=#FFFFFF;entryX=0.5;entryY=0;entryDx=0;entryDy=0;" edge="1" source="348" parent="WIyWlLk6GJQsqaUBKTNV-1" target="351">
                    <mxGeometry relative="1" as="geometry">
                        <mxPoint x="310" y="1720" as="targetPoint"/>
                    </mxGeometry>
                </mxCell>
                <mxCell id="351" value="计算残差" style="swimlane;fontStyle=1;align=center;verticalAlign=middle;childLayout=stackLayout;horizontal=1;startSize=30;horizontalStack=0;resizeParent=0;resizeLast=1;container=0;fontColor=#000000;collapsible=0;rounded=1;arcSize=30;strokeColor=#ff0000;fillColor=#ffffc0;swimlaneFillColor=#ffffc0;dropTarget=0;labelBackgroundColor=none;" vertex="1" parent="WIyWlLk6GJQsqaUBKTNV-1">
                    <mxGeometry x="225" y="1750" width="160" height="70" as="geometry"/>
                </mxCell>
                <mxCell id="352" value="拟合输出与实际测量之间的平方差的和。要最小化" style="text;html=1;strokeColor=none;fillColor=none;align=center;verticalAlign=middle;spacingLeft=4;spacingRight=4;whiteSpace=wrap;overflow=hidden;rotatable=0;fontColor=#000000;labelBackgroundColor=none;" vertex="1" parent="351">
                    <mxGeometry y="30" width="160" height="40" as="geometry"/>
                </mxCell>
                <mxCell id="353" value="" style="edgeStyle=orthogonalEdgeStyle;html=1;verticalAlign=bottom;endArrow=open;endSize=8;strokeColor=#ff0000;fontColor=#FFFFFF;entryX=0.5;entryY=0;entryDx=0;entryDy=0;" edge="1" source="351" parent="WIyWlLk6GJQsqaUBKTNV-1" target="354">
                    <mxGeometry relative="1" as="geometry">
                        <mxPoint x="305" y="1860" as="targetPoint"/>
                    </mxGeometry>
                </mxCell>
                <mxCell id="354" value="保存拟合结果" style="swimlane;fontStyle=1;align=center;verticalAlign=middle;childLayout=stackLayout;horizontal=1;startSize=30;horizontalStack=0;resizeParent=0;resizeLast=1;container=0;fontColor=#000000;collapsible=0;rounded=1;arcSize=30;strokeColor=#ff0000;fillColor=#ffffc0;swimlaneFillColor=#ffffc0;dropTarget=0;labelBackgroundColor=none;" vertex="1" parent="WIyWlLk6GJQsqaUBKTNV-1">
                    <mxGeometry x="225" y="1880" width="160" height="70" as="geometry"/>
                </mxCell>
                <mxCell id="355" value="c_t2保存了每个时间点的固定参数和拟合的&lt;span style=&quot;font-family: Consolas, &amp;quot;Courier New&amp;quot;, monospace; font-size: 14px;&quot;&gt;Δ𝑘𝑖和Δ𝑛&lt;/span&gt;" style="text;html=1;strokeColor=none;fillColor=none;align=center;verticalAlign=middle;spacingLeft=4;spacingRight=4;whiteSpace=wrap;overflow=hidden;rotatable=0;fontColor=#000000;labelBackgroundColor=none;" vertex="1" parent="354">
                    <mxGeometry y="30" width="160" height="40" as="geometry"/>
                </mxCell>
                <mxCell id="356" value="" style="edgeStyle=orthogonalEdgeStyle;html=1;verticalAlign=bottom;endArrow=open;endSize=8;strokeColor=#ff0000;fontColor=#FFFFFF;exitX=0;exitY=0;exitDx=0;exitDy=0;entryX=1;entryY=0.5;entryDx=0;entryDy=0;" edge="1" source="355" parent="WIyWlLk6GJQsqaUBKTNV-1" target="318">
                    <mxGeometry relative="1" as="geometry">
                        <mxPoint x="310" y="1890" as="targetPoint"/>
                        <Array as="points">
                            <mxPoint x="210" y="1910"/>
                            <mxPoint x="210" y="1700"/>
                        </Array>
                    </mxGeometry>
                </mxCell>
                <mxCell id="357" value="可调整参数" style="swimlane;fontStyle=0;childLayout=stackLayout;horizontal=1;startSize=30;horizontalStack=0;resizeParent=1;resizeParentMax=0;resizeLast=0;collapsible=1;marginBottom=0;whiteSpace=wrap;html=1;strokeWidth=1;fillColor=#008a00;fontColor=#ffffff;strokeColor=#005700;" vertex="1" parent="WIyWlLk6GJQsqaUBKTNV-1">
                    <mxGeometry x="414" y="1670" width="170" height="60" as="geometry"/>
                </mxCell>
                <mxCell id="358" value="&lt;span style=&quot;color: rgb(240, 240, 240);&quot;&gt;1. 加权系数: 0.15&lt;/span&gt;" style="text;strokeColor=#3A5431;fillColor=#6d8764;align=left;verticalAlign=middle;spacingLeft=4;spacingRight=4;overflow=hidden;points=[[0,0.5],[1,0.5]];portConstraint=eastwest;rotatable=0;whiteSpace=wrap;html=1;strokeWidth=1;fontColor=#ffffff;" vertex="1" parent="357">
                    <mxGeometry y="30" width="170" height="30" as="geometry"/>
                </mxCell>
                <mxCell id="359" value="" style="edgeStyle=none;html=1;fontColor=#000000;entryX=0;entryY=0;entryDx=0;entryDy=0;exitX=1;exitY=0;exitDx=0;exitDy=0;" edge="1" parent="WIyWlLk6GJQsqaUBKTNV-1" source="349" target="357">
                    <mxGeometry relative="1" as="geometry"/>
                </mxCell>
                <mxCell id="360" value="" style="shape=line;html=1;strokeWidth=6;strokeColor=#ff0000;labelBackgroundColor=none;fontColor=#000000;" vertex="1" parent="WIyWlLk6GJQsqaUBKTNV-1">
                    <mxGeometry x="-100" y="1900" width="200" height="10" as="geometry"/>
                </mxCell>
                <mxCell id="361" value="" style="edgeStyle=orthogonalEdgeStyle;html=1;verticalAlign=bottom;endArrow=open;endSize=8;strokeColor=#ff0000;fontColor=#000000;startArrow=none;entryX=0.5;entryY=0;entryDx=0;entryDy=0;" edge="1" parent="WIyWlLk6GJQsqaUBKTNV-1" target="372">
                    <mxGeometry relative="1" as="geometry">
                        <mxPoint x="-810" y="1985" as="targetPoint"/>
                        <mxPoint y="1905" as="sourcePoint"/>
                        <Array as="points">
                            <mxPoint y="1950"/>
                            <mxPoint x="-915" y="1950"/>
                        </Array>
                    </mxGeometry>
                </mxCell>
                <mxCell id="362" value="&lt;p style=&quot;margin:0px;margin-top:6px;text-align:center;&quot;&gt;&lt;b&gt;图11~22-&lt;/b&gt;&lt;span style=&quot;font-family: Consolas, &amp;quot;Courier New&amp;quot;, monospace; font-size: 14px; text-align: left;&quot;&gt;绘制拟合结果与实验数据的对比图&lt;/span&gt;&lt;/p&gt;&lt;hr&gt;&lt;p style=&quot;margin:0px;margin-left:8px;&quot;&gt;+ 输入数据: 均匀的新极化激元瞬态吸收光谱数据&lt;/p&gt;&lt;p style=&quot;margin:0px;margin-left:8px;&quot;&gt;+ 输入数据: 均匀透射率&lt;/p&gt;&lt;p style=&quot;margin:0px;margin-left:8px;&quot;&gt;+ 输入数据:&amp;nbsp;&lt;span style=&quot;font-family: Consolas, &amp;quot;Courier New&amp;quot;, monospace; font-size: 14px; text-align: center;&quot;&gt;Δ𝑘𝑖和Δ𝑛&lt;/span&gt;&lt;br&gt;+ x范围: 均匀波长范围&lt;/p&gt;&lt;p style=&quot;margin:0px;margin-left:8px;&quot;&gt;+ y范围: 测量的光谱数据&lt;/p&gt;&lt;p style=&quot;margin:0px;margin-left:8px;&quot;&gt;+ y范围: 拟合计算得到的光谱数据&lt;/p&gt;" style="align=left;overflow=fill;html=1;dropTarget=0;strokeColor=#001DBC;strokeWidth=1;fillColor=#0050ef;fontColor=#ffffff;" vertex="1" parent="WIyWlLk6GJQsqaUBKTNV-1">
                    <mxGeometry x="-1080" y="2080" width="330" height="130" as="geometry"/>
                </mxCell>
                <mxCell id="363" value="" style="shape=component;jettyWidth=8;jettyHeight=4;strokeColor=default;strokeWidth=1;" vertex="1" parent="362">
                    <mxGeometry x="1" width="20" height="20" relative="1" as="geometry">
                        <mxPoint x="-24" y="4" as="offset"/>
                    </mxGeometry>
                </mxCell>
                <mxCell id="365" value="可调整参数" style="swimlane;fontStyle=0;childLayout=stackLayout;horizontal=1;startSize=30;horizontalStack=0;resizeParent=1;resizeParentMax=0;resizeLast=0;collapsible=1;marginBottom=0;whiteSpace=wrap;html=1;strokeWidth=1;fillColor=#008a00;fontColor=#ffffff;strokeColor=#005700;" vertex="1" parent="WIyWlLk6GJQsqaUBKTNV-1">
                    <mxGeometry x="-1190" y="1990" width="170" height="60" as="geometry"/>
                </mxCell>
                <mxCell id="366" value="&lt;span style=&quot;color: rgb(240, 240, 240);&quot;&gt;1. 加权系数: 0.15&lt;/span&gt;" style="text;strokeColor=#3A5431;fillColor=#6d8764;align=left;verticalAlign=middle;spacingLeft=4;spacingRight=4;overflow=hidden;points=[[0,0.5],[1,0.5]];portConstraint=eastwest;rotatable=0;whiteSpace=wrap;html=1;strokeWidth=1;fontColor=#ffffff;" vertex="1" parent="365">
                    <mxGeometry y="30" width="170" height="30" as="geometry"/>
                </mxCell>
                <mxCell id="367" value="&lt;p style=&quot;margin:0px;margin-top:6px;text-align:center;&quot;&gt;&lt;b&gt;图23-系数比走势图&lt;/b&gt;&lt;/p&gt;&lt;hr&gt;&lt;p style=&quot;margin:0px;margin-left:8px;&quot;&gt;+ 输入数据: 暂存的不同时间点拟合系数&lt;span style=&quot;font-family: Consolas, &amp;quot;Courier New&amp;quot;, monospace; font-size: 14px;&quot;&gt;c_t2&lt;/span&gt;&lt;/p&gt;&lt;p style=&quot;margin:0px;margin-left:8px;&quot;&gt;+ x范围: 选取的时间节点t2&lt;/p&gt;&lt;p style=&quot;margin:0px;margin-left:8px;&quot;&gt;+ y范围:&amp;nbsp;&lt;span style=&quot;font-family: Consolas, &amp;quot;Courier New&amp;quot;, monospace; font-size: 14px;&quot;&gt;Δ&lt;/span&gt;&lt;span style=&quot;font-family: Consolas, &amp;quot;Courier New&amp;quot;, monospace; font-size: 14px;&quot;&gt;n，&lt;/span&gt;&lt;span style=&quot;font-family: Consolas, &amp;quot;Courier New&amp;quot;, monospace; font-size: 14px;&quot;&gt;Δ&lt;/span&gt;&lt;span style=&quot;font-family: Consolas, &amp;quot;Courier New&amp;quot;, monospace; font-size: 14px;&quot;&gt;k和&lt;/span&gt;&lt;span style=&quot;font-family: Consolas, &amp;quot;Courier New&amp;quot;, monospace; font-size: 14px;&quot;&gt;Δ&lt;/span&gt;&lt;span style=&quot;font-family: Consolas, &amp;quot;Courier New&amp;quot;, monospace; font-size: 14px;&quot;&gt;n&lt;/span&gt;&lt;span style=&quot;font-family: Consolas, &amp;quot;Courier New&amp;quot;, monospace; font-size: 14px;&quot;&gt;/Δ&lt;/span&gt;&lt;span style=&quot;font-family: Consolas, &amp;quot;Courier New&amp;quot;, monospace; font-size: 14px;&quot;&gt;k的&lt;/span&gt;系数值&lt;/p&gt;" style="align=left;overflow=fill;html=1;dropTarget=0;strokeColor=#001DBC;strokeWidth=1;fillColor=#0050ef;fontColor=#ffffff;" vertex="1" parent="WIyWlLk6GJQsqaUBKTNV-1">
                    <mxGeometry x="-670" y="2000" width="260" height="90" as="geometry"/>
                </mxCell>
                <mxCell id="368" value="" style="shape=component;jettyWidth=8;jettyHeight=4;strokeColor=default;strokeWidth=1;" vertex="1" parent="367">
                    <mxGeometry x="1" width="20" height="20" relative="1" as="geometry">
                        <mxPoint x="-24" y="4" as="offset"/>
                    </mxGeometry>
                </mxCell>
                <mxCell id="370" value="&lt;p style=&quot;margin: 6px 0px 0px; text-align: center;&quot;&gt;&lt;b style=&quot;&quot;&gt;&lt;font style=&quot;font-size: 12px;&quot;&gt;图24-对比稳态极化激元与腔模式的拟合残差&lt;/font&gt;&lt;/b&gt;&lt;/p&gt;&lt;hr style=&quot;&quot;&gt;&lt;p style=&quot;margin: 0px 0px 0px 8px;&quot;&gt;&lt;font style=&quot;font-size: 12px;&quot;&gt;+ 输入数据:&amp;nbsp;腔模式的残差&lt;/font&gt;&lt;/p&gt;&lt;p style=&quot;margin: 0px 0px 0px 8px;&quot;&gt;&lt;font style=&quot;font-size: 12px;&quot;&gt;+ 输入数据:&amp;nbsp;稳态极化激元的拟合残差&lt;/font&gt;&lt;/p&gt;&lt;p style=&quot;margin: 0px 0px 0px 8px;&quot;&gt;&lt;font style=&quot;font-size: 12px;&quot;&gt;+ x范围: 选取的时间节点t2&lt;/font&gt;&lt;/p&gt;&lt;p style=&quot;margin: 0px 0px 0px 8px;&quot;&gt;&lt;font style=&quot;font-size: 12px;&quot;&gt;+ y范围:&amp;nbsp;残差&lt;/font&gt;&lt;/p&gt;" style="align=left;overflow=fill;html=1;dropTarget=0;strokeColor=#001DBC;strokeWidth=1;fillColor=#0050ef;fontColor=#ffffff;" vertex="1" parent="WIyWlLk6GJQsqaUBKTNV-1">
                    <mxGeometry x="-330" y="2000" width="290" height="100" as="geometry"/>
                </mxCell>
                <mxCell id="371" value="" style="shape=component;jettyWidth=8;jettyHeight=4;strokeColor=default;strokeWidth=1;" vertex="1" parent="370">
                    <mxGeometry x="1" width="20" height="20" relative="1" as="geometry">
                        <mxPoint x="-24" y="4" as="offset"/>
                    </mxGeometry>
                </mxCell>
                <mxCell id="373" value="" style="edgeStyle=none;html=1;fontFamily=Helvetica;fontSize=12;fontColor=#FFFFFF;entryX=1;entryY=0;entryDx=0;entryDy=0;exitX=0;exitY=0.5;exitDx=0;exitDy=0;" edge="1" parent="WIyWlLk6GJQsqaUBKTNV-1" source="372" target="365">
                    <mxGeometry relative="1" as="geometry"/>
                </mxCell>
                <mxCell id="372" value="拟合并绘制对比图" style="rounded=1;whiteSpace=wrap;html=1;arcSize=40;fontColor=#000000;fillColor=#ffffc0;strokeColor=#ff0000;" vertex="1" parent="WIyWlLk6GJQsqaUBKTNV-1">
                    <mxGeometry x="-975" y="2000" width="120" height="40" as="geometry"/>
                </mxCell>
                <mxCell id="374" value="" style="edgeStyle=orthogonalEdgeStyle;html=1;verticalAlign=bottom;endArrow=open;endSize=8;strokeColor=#ff0000;fontColor=#000000;startArrow=none;exitX=0.5;exitY=1;exitDx=0;exitDy=0;entryX=0.5;entryY=0;entryDx=0;entryDy=0;" edge="1" parent="WIyWlLk6GJQsqaUBKTNV-1" source="372" target="362">
                    <mxGeometry relative="1" as="geometry">
                        <mxPoint x="-720" y="2269.9999999999995" as="targetPoint"/>
                        <mxPoint x="-720" y="2110.0000000000005" as="sourcePoint"/>
                    </mxGeometry>
                </mxCell>
                <mxCell id="375" value="" style="edgeStyle=orthogonalEdgeStyle;html=1;verticalAlign=bottom;endArrow=open;endSize=8;strokeColor=#ff0000;fontColor=#000000;startArrow=none;entryX=0.5;entryY=0;entryDx=0;entryDy=0;" edge="1" parent="WIyWlLk6GJQsqaUBKTNV-1" target="367">
                    <mxGeometry relative="1" as="geometry">
                        <mxPoint x="-510" y="1960" as="targetPoint"/>
                        <mxPoint y="1910" as="sourcePoint"/>
                        <Array as="points">
                            <mxPoint y="1950"/>
                            <mxPoint x="-540" y="1950"/>
                        </Array>
                    </mxGeometry>
                </mxCell>
                <mxCell id="376" value="" style="edgeStyle=orthogonalEdgeStyle;html=1;verticalAlign=bottom;endArrow=open;endSize=8;strokeColor=#ff0000;fontColor=#000000;startArrow=none;entryX=0.5;entryY=0;entryDx=0;entryDy=0;" edge="1" parent="WIyWlLk6GJQsqaUBKTNV-1" target="370">
                    <mxGeometry relative="1" as="geometry">
                        <mxPoint x="40" y="2179.9999999999995" as="targetPoint"/>
                        <mxPoint y="1910" as="sourcePoint"/>
                        <Array as="points">
                            <mxPoint y="1950"/>
                            <mxPoint x="-185" y="1950"/>
                        </Array>
                    </mxGeometry>
                </mxCell>
                <mxCell id="377" value="" style="edgeStyle=orthogonalEdgeStyle;html=1;verticalAlign=bottom;endArrow=open;endSize=8;strokeColor=#ff0000;fontColor=#000000;startArrow=none;" edge="1" parent="WIyWlLk6GJQsqaUBKTNV-1" target="378">
                    <mxGeometry relative="1" as="geometry">
                        <mxPoint y="2140" as="targetPoint"/>
                        <mxPoint y="1910" as="sourcePoint"/>
                    </mxGeometry>
                </mxCell>
                <mxCell id="378" value="" style="ellipse;html=1;shape=endState;fillColor=#000000;strokeColor=#ff0000;labelBackgroundColor=none;fontFamily=Helvetica;fontSize=12;fontColor=#FFFFFF;" vertex="1" parent="WIyWlLk6GJQsqaUBKTNV-1">
                    <mxGeometry x="-15" y="2129.9999999999995" width="30" height="30" as="geometry"/>
                </mxCell>
            </root>
        </mxGraphModel>
    </diagram>
</mxfile>